<svg xmlns="http://www.w3.org/2000/svg" width="61" height="41" viewBox="0 0 61 41"><defs><style>.cls-1{fill:#f15d2d;fill-rule:evenodd}</style></defs><path class="cls-1" d="M59.021 5.02a3.824 3.824 0 0 0-3.893.03l-7.84 4.52A10.5 10.5 0 0 0 36.836 0H10.491A10.506 10.506 0 0 0 0 10.49v20.02A10.506 10.506 0 0 0 10.491 41h26.335a10.5 10.5 0 0 0 10.45-9.57l7.843 4.52A3.919 3.919 0 0 0 61 32.55V8.43a3.885 3.885 0 0 0-1.979-3.41zM58 32.55a.923.923 0 0 1-1.385.8l-10.049-5.79a1.5 1.5 0 0 0-2.25 1.3v1.65a7.5 7.5 0 0 1-7.49 7.49H10.491A7.5 7.5 0 0 1 3 30.51V10.49A7.5 7.5 0 0 1 10.491 3h26.345a7.5 7.5 0 0 1 7.492 7.49v1.65a1.5 1.5 0 0 0 2.249 1.3l10.065-5.8a.863.863 0 0 1 .894-.01.908.908 0 0 1 .464.8v24.12zM16.163 11.51h10.063a.475.475 0 1 0 0-.95H16.163a.475.475 0 1 0 0 .95zm-6.3 9.61a.476.476 0 0 0 .479.48h10.063a.476.476 0 0 0 .479-.48.482.482 0 0 0-.479-.48H10.343a.482.482 0 0 0-.479.48zm22.029-6.6a2.615 2.615 0 1 0-2.615-2.62 2.615 2.615 0 0 0 2.616 2.62zm4.3-.76c-1.5 2.11-3.513 2.35-5.676 1.07-.147-.09-.8-.45-.946-.54-3.481-2.06-6.957-1.25-9.289 2.01-.991 1.39 1.3 2.71 2.28 1.33a3.716 3.716 0 0 1 4.412-1.64c-.858 1.49-1.607 2.97-2.666 5.08s-3.4 3.78-5.641 2.46a1.377 1.377 0 1 0-1.466 2.33 6.629 6.629 0 0 0 8.5-1.64.746.746 0 0 0 .2.09 16.969 16.969 0 0 1 4.064 2.41c.6.49 1.627 3 2.237 4.26a1.32 1.32 0 0 0 2.39-1.12c-.692-1.43-1.854-4.29-2.76-5.01a22.568 22.568 0 0 0-3.336-2.27q1.214-2.355 2.541-4.65c2.83.87 5.52-.15 7.436-2.83.995-1.39-1.296-2.71-2.272-1.34zm-17.453 1.96a.476.476 0 0 0-.479-.48H8.2a.476.476 0 0 0-.479.48.482.482 0 0 0 .479.48h10.063a.482.482 0 0 0 .479-.48zm-1.637 10.97H8.833a.477.477 0 0 0-.479.48.483.483 0 0 0 .479.48h8.269a.483.483 0 0 0 .479-.48.477.477 0 0 0-.476-.48z"/></svg>