<svg xmlns="http://www.w3.org/2000/svg" width="53" height="42.87" viewBox="0 0 53 42.87">
  <defs>
    <style>
      .cls-1 {
        fill: #f15d2d;
        fill-rule: evenodd;
      }
    </style>
  </defs>
  <path id="Sound" class="cls-1" d="M701.58,1363.22a1.51,1.51,0,0,0-1.638.33l-11.8,11.75H675.5a1.5,1.5,0,0,0-1.5,1.49v15.52a1.5,1.5,0,0,0,1.5,1.49h12.639l11.8,11.76a1.526,1.526,0,0,0,1.063.43,1.445,1.445,0,0,0,.575-0.11,1.5,1.5,0,0,0,.927-1.38v-39.9A1.5,1.5,0,0,0,701.58,1363.22Zm-2.078,37.67-9.677-9.64a1.508,1.508,0,0,0-1.062-.44H677v-12.52h11.759a1.508,1.508,0,0,0,1.062-.44l9.677-9.64v32.68Zm18.157-32.44a1.506,1.506,0,0,0-2.052.55,1.489,1.489,0,0,0,.548,2.04,15.563,15.563,0,0,1,0,27.02,1.5,1.5,0,0,0-.548,2.05,1.515,1.515,0,0,0,1.3.74,1.46,1.46,0,0,0,.751-0.2A18.548,18.548,0,0,0,717.659,1368.45Zm-3.381,16.1a12.286,12.286,0,0,0-6.162-10.61,1.5,1.5,0,1,0-1.5,2.59,9.229,9.229,0,0,1,0,16.04,1.493,1.493,0,0,0,.753,2.79,1.465,1.465,0,0,0,.751-0.2A12.286,12.286,0,0,0,714.278,1384.55Zm6.36,0a15.468,15.468,0,0,0-7.746-13.36,1.507,1.507,0,0,0-2.053.55,1.489,1.489,0,0,0,.548,2.04,12.408,12.408,0,0,1,0,21.54,1.5,1.5,0,0,0,.753,2.79,1.466,1.466,0,0,0,.752-0.2A15.468,15.468,0,0,0,720.638,1384.55Z" transform="translate(-674 -1363.13)"/>
</svg>
