<svg xmlns="http://www.w3.org/2000/svg" width="62.875" height="41.03" viewBox="0 0 62.875 41.03">
  <defs>
    <style>
      .cls-1 {
        fill: #f15d2d;
        fill-rule: evenodd;
      }
    </style>
  </defs>
  <path id="Sound_pressure" data-name="Sound pressure" class="cls-1" d="M901.228,1402.94h-9.469a1.5,1.5,0,0,1-1.136-.52l-6.359-7.25a1.476,1.476,0,0,1-.363-0.85l-0.571-6.5h-0.522a1.5,1.5,0,0,1-1.488-1.27l-1.278-8.48a1.5,1.5,0,0,1,.349-1.2,1.531,1.531,0,0,1,1.139-.51h0.3a14.665,14.665,0,0,1,29.327,0h0.3a1.529,1.529,0,0,1,1.139.51,1.491,1.491,0,0,1,.349,1.2l-1.278,8.48a1.5,1.5,0,0,1-1.488,1.27h-0.521l-0.572,6.5a1.47,1.47,0,0,1-.363.85l-6.359,7.25A1.5,1.5,0,0,1,901.228,1402.94Zm-8.782-2.98h8.1l5.589-6.38,0.649-7.38a1.5,1.5,0,0,1,1.5-1.36h0.6l0.83-5.51H909.62a1.52,1.52,0,0,1-1.1-.47,1.479,1.479,0,0,1-.4-1.12c0.022-.3.037-0.6,0.037-0.9a11.665,11.665,0,1,0-23.324,0c0,0.3.015,0.6,0.036,0.9a1.474,1.474,0,0,1-.4,1.12,1.52,1.52,0,0,1-1.1.47h-0.092l0.829,5.51h0.605a1.5,1.5,0,0,1,1.5,1.36l0.649,7.38Zm-20.707-30.27a0.491,0.491,0,0,0,.045.7c2.42,2.11,3.925,6.06,3.925,10.3s-1.5,8.2-3.925,10.3a0.491,0.491,0,0,0-.045.7,0.474,0.474,0,0,0,.376.17,0.515,0.515,0,0,0,.331-0.12c2.631-2.29,4.266-6.52,4.266-11.05s-1.635-8.75-4.266-11.04A0.492,0.492,0,0,0,871.739,1369.69Zm-2.57,1.93a0.5,0.5,0,0,0-.708.05,0.492,0.492,0,0,0,.045.7c1.953,1.7,3.166,4.89,3.166,8.32s-1.213,6.63-3.166,8.33a0.492,0.492,0,0,0-.045.7,0.508,0.508,0,0,0,.376.17,0.478,0.478,0,0,0,.332-0.13c2.162-1.88,3.506-5.36,3.506-9.07S871.331,1373.51,869.169,1371.62Zm-3.282,1.98a0.5,0.5,0,0,0-.708.05,0.493,0.493,0,0,0,.046.7,9.552,9.552,0,0,1,0,12.69,0.493,0.493,0,0,0-.046.7,0.512,0.512,0,0,0,.377.17,0.474,0.474,0,0,0,.331-0.13A10.506,10.506,0,0,0,865.887,1373.6Zm51.393,7.09c0-4.24,1.5-8.19,3.925-10.3a0.5,0.5,0,1,0-.663-0.74c-2.631,2.29-4.265,6.52-4.265,11.04s1.634,8.76,4.265,11.05a0.515,0.515,0,0,0,.331.12,0.475,0.475,0,0,0,.377-0.17,0.493,0.493,0,0,0-.045-0.7C918.783,1388.89,917.28,1384.94,917.28,1380.69Zm4.035,0c0-3.43,1.214-6.62,3.167-8.32a0.491,0.491,0,0,0,.045-0.7,0.5,0.5,0,0,0-.707-0.05c-2.164,1.89-3.508,5.36-3.508,9.07s1.344,7.19,3.508,9.07a0.474,0.474,0,0,0,.331.13,0.508,0.508,0,0,0,.376-0.17,0.491,0.491,0,0,0-.045-0.7C922.529,1387.32,921.315,1384.13,921.315,1380.69Zm4.036,0a8.536,8.536,0,0,1,2.411-6.34,0.493,0.493,0,0,0,.047-0.7,0.5,0.5,0,0,0-.709-0.05,10.509,10.509,0,0,0,0,14.18,0.476,0.476,0,0,0,.331.13,0.512,0.512,0,0,0,.378-0.17,0.493,0.493,0,0,0-.047-0.7A8.576,8.576,0,0,1,925.351,1380.69Z" transform="translate(-865.063 -1361.91)"/>
</svg>
