<svg width="108" height="67" viewBox="0 0 108 67" version="1.1" xmlns="http://www.w3.org/2000/svg" xmlns:xlink="http://www.w3.org/1999/xlink">
<title>Icon_library_Cloud security</title>
<desc>Created using Figma</desc>
<g id="Canvas" transform="translate(279 -4510)">
<g id="Icon_library_Cloud security">
<g id="Layer 4">
<g id="Vector">
<use xlink:href="#path0_stroke" transform="translate(-253.266 4538.14)" fill="#2DABE2"/>
</g>
<g id="Vector">
<use xlink:href="#path1_stroke" transform="translate(-238.436 4570.33)" fill="#2DABE2"/>
</g>
<g id="Vector">
<use xlink:href="#path2_stroke" transform="translate(-249.236 4549.95)" fill="#2DABE2"/>
</g>
<g id="Vector">
<use xlink:href="#path3_stroke" transform="translate(-249.226 4547.88)" fill="#2DABE2"/>
</g>
<g id="Vector">
<use xlink:href="#path4_stroke" transform="translate(-245.826 4544.24)" fill="#2DABE2"/>
</g>
<g id="Vector">
<use xlink:href="#path5_stroke" transform="translate(-238.406 4543.24)" fill="#2DABE2"/>
</g>
<g id="Vector">
<use xlink:href="#path6_stroke" transform="translate(-234.856 4544.95)" fill="#2DABE2"/>
</g>
<g id="Vector">
<use xlink:href="#path7_stroke" transform="translate(-227.186 4547.86)" fill="#2DABE2"/>
</g>
<g id="Vector">
<use xlink:href="#path8_stroke" transform="translate(-236.316 4551.5)" fill="#2DABE2"/>
</g>
<g id="Vector">
<use xlink:href="#path9_stroke" transform="translate(-278 4518)" fill="#2DABE2"/>
</g>
<g id="Vector">
<use xlink:href="#path10_stroke" transform="translate(-185.086 4520.5)" fill="#2DABE2"/>
</g>
<g id="Vector">
<use xlink:href="#path11_stroke" transform="translate(-214.836 4511)" fill="#2DABE2"/>
</g>
<g id="Vector">
<use xlink:href="#path12_stroke" transform="translate(-216.656 4518.23)" fill="#2DABE2"/>
</g>
<g id="Vector">
<use xlink:href="#path13_stroke" transform="translate(-226.666 4518.5)" fill="#2DABE2"/>
</g>
<g id="Vector">
<use xlink:href="#path14_stroke" transform="translate(-228.336 4521.96)" fill="#2DABE2"/>
</g>
<g id="Vector">
<use xlink:href="#path15_stroke" transform="translate(-225.866 4524.35)" fill="#2DABE2"/>
</g>
<g id="Vector">
<use xlink:href="#path16_stroke" transform="translate(-223.436 4527.04)" fill="#2DABE2"/>
</g>
<g id="Vector">
<use xlink:href="#path17_stroke" transform="translate(-219.546 4527.18)" fill="#2DABE2"/>
</g>
<g id="Vector">
<use xlink:href="#path18_stroke" transform="translate(-203.576 4538.5)" fill="#2DABE2"/>
</g>
<g id="Vector">
<use xlink:href="#path19_stroke" transform="translate(-200.146 4540.25)" fill="#2DABE2"/>
</g>
<g id="Vector">
<use xlink:href="#path20_stroke" transform="translate(-195.496 4546.5)" fill="#2DABE2"/>
</g>
<g id="Vector">
<use xlink:href="#path21_stroke" transform="translate(-192.446 4544.56)" fill="#2DABE2"/>
</g>
<g id="Vector">
<use xlink:href="#path22_stroke" transform="translate(-189.456 4543.42)" fill="#2DABE2"/>
</g>
<g id="Vector">
<use xlink:href="#path23_stroke" transform="translate(-185.776 4520.91)" fill="#2DABE2"/>
</g>
</g>
</g>
</g>
<defs>
<path id="path0_stroke" d="M 15.3 -6.10352e-07L 16.115 -0.57941L 15.2973 -1.72973L 14.4831 -0.576836L 15.3 -6.10352e-07ZM 7.62939e-07 6.43L 7.62939e-07 5.43L -0.999999 5.43L -0.999999 6.43L 7.62939e-07 6.43ZM 15.29 37L 14.9771 37.9498L 15.2618 38.0436L 15.5512 37.9653L 15.29 37ZM 30.58 6.43L 31.58 6.43L 31.58 5.43L 30.58 5.43L 30.58 6.43ZM 14.4831 -0.576836C 14.3849 -0.437649 14.1626 -0.212644 13.7697 0.0858844C 13.3904 0.374143 12.902 0.693716 12.3243 1.03169C 11.1696 1.70715 9.70875 2.42662 8.16151 3.08639C 6.61523 3.74575 5.00208 4.33722 3.54626 4.76207C 2.06962 5.193 0.829389 5.43 7.62939e-07 5.43L 7.62939e-07 7.43C 1.12061 7.43 2.58163 7.127 4.10655 6.68199C 5.65229 6.2309 7.34102 5.6105 8.946 4.92611C 10.55 4.24213 12.0897 3.48598 13.3342 2.758C 13.956 2.39425 14.5167 2.03015 14.9798 1.67829C 15.4293 1.33671 15.8426 0.965147 16.1169 0.576835L 14.4831 -0.576836ZM -0.999999 6.43L -0.999999 21.72L 1 21.72L 1 6.43L -0.999999 6.43ZM -0.999999 21.72C -0.999999 23.8428 0.057081 25.896 1.48187 27.7175C 2.91927 29.5551 4.82095 31.2717 6.71286 32.741C 8.61022 34.2146 10.5297 35.4642 12.0279 36.363C 12.7776 36.8128 13.4258 37.1772 13.9178 37.44C 14.37 37.6816 14.7715 37.8821 14.9771 37.9498L 15.6029 36.0502C 15.6237 36.0571 15.5759 36.0402 15.4165 35.9624C 15.2781 35.8949 15.0908 35.7991 14.8602 35.6759C 14.3997 35.4299 13.7804 35.0821 13.0568 34.648C 11.6084 33.779 9.75854 32.5741 7.93964 31.1615C 6.1153 29.7446 4.35386 28.143 3.05719 26.4853C 1.74792 24.8115 1 23.1922 1 21.72L -0.999999 21.72ZM 15.5512 37.9653C 15.7155 37.9208 15.9096 37.8272 16.0463 37.7594C 16.2166 37.6749 16.4292 37.5623 16.675 37.4264C 17.168 37.1537 17.816 36.775 18.564 36.312C 20.0594 35.3863 21.9731 34.1118 23.8638 32.6561C 25.7486 31.2049 27.6418 29.5499 29.0734 27.8604C 30.4728 26.209 31.58 24.3532 31.58 22.52L 29.58 22.52C 29.58 23.6068 28.8822 24.9923 27.5475 26.5674C 26.2451 28.1045 24.4751 29.6613 22.6437 31.0714C 20.8181 32.477 18.9625 33.7131 17.5113 34.6115C 16.786 35.0605 16.1665 35.4221 15.707 35.6762C 15.4767 35.8037 15.2919 35.901 15.1573 35.9679C 14.989 36.0514 14.9707 36.0504 15.0288 36.0347L 15.5512 37.9653ZM 31.58 22.52L 31.58 6.43L 29.58 6.43L 29.58 22.52L 31.58 22.52ZM 30.58 5.43C 29.6494 5.43 28.3589 5.18992 26.8754 4.76132C 25.4077 4.33731 23.8127 3.74705 22.2955 3.08886C 20.7774 2.4303 19.3562 1.71192 18.2333 1.03756C 17.0621 0.334177 16.3564 -0.239934 16.115 -0.57941L 14.485 0.579409C 14.9936 1.29493 16.0379 2.05207 17.2036 2.75212C 18.4176 3.4812 19.9201 4.23845 21.4995 4.92364C 23.0798 5.6092 24.756 6.23081 26.3203 6.68274C 27.8686 7.13008 29.3706 7.43 30.58 7.43L 30.58 5.43Z"/>
<path id="path1_stroke" d="M 1.11318 0.425136C 1.34797 0.279788 1.42048 -0.0283784 1.27514 -0.263173C 1.12979 -0.497968 0.821621 -0.57048 0.586826 -0.425132L 1.11318 0.425136ZM 0.429999 0.26L 0.178689 0.692254C 0.338339 0.785074 0.536153 0.782336 0.693174 0.685134L 0.429999 0.26ZM 0.251309 -0.422254C 0.0125818 -0.561048 -0.29346 -0.480037 -0.432255 -0.24131C -0.57105 -0.00258282 -0.490038 0.303459 -0.251311 0.442254L 0.251309 -0.422254ZM 0.586826 -0.425132L 0.166824 -0.165134L 0.693174 0.685134L 1.11318 0.425136L 0.586826 -0.425132ZM 0.681309 -0.172254L 0.251309 -0.422254L -0.251311 0.442254L 0.178689 0.692254L 0.681309 -0.172254Z"/>
<path id="path2_stroke" d="M 7.9886 19.2133C 8.21686 19.3687 8.52789 19.3097 8.6833 19.0814C 8.83871 18.8531 8.77966 18.5421 8.5514 18.3867L 7.9886 19.2133ZM 5.35 16.65L 5.66138 16.2588L 5.65995 16.2577L 5.35 16.65ZM 0.5 7.62939e-07C 0.5 -0.276142 0.276142 -0.499999 -4.57764e-07 -0.499999C -0.276143 -0.499999 -0.5 -0.276142 -0.5 7.62939e-07L 0.5 7.62939e-07ZM -0.5 0.617816C -0.5 0.893958 -0.276143 1.11782 -4.57764e-07 1.11782C 0.276142 1.11782 0.5 0.893958 0.5 0.617816L -0.5 0.617816ZM 0.5 4.33719C 0.5 4.06104 0.276142 3.83719 -4.57764e-07 3.83719C -0.276143 3.83719 -0.5 4.06104 -0.5 4.33719L 0.5 4.33719ZM -0.5 5.57282C -0.5 5.84896 -0.276143 6.07282 -4.57764e-07 6.07282C 0.276142 6.07282 0.5 5.84896 0.5 5.57282L -0.5 5.57282ZM 0.5 9.29219C 0.5 9.01604 0.276142 8.79219 -4.57764e-07 8.79219C -0.276143 8.79219 -0.5 9.01604 -0.5 9.29219L 0.5 9.29219ZM -0.403053 10.5787C -0.331757 10.8454 -0.0576919 11.0039 0.209088 10.9326C 0.475868 10.8613 0.634338 10.5873 0.563042 10.3205L -0.403053 10.5787ZM 2.1421 12.9406C 1.96442 12.7292 1.64901 12.7019 1.43763 12.8796C 1.22625 13.0573 1.19892 13.3727 1.37661 13.5841L 2.1421 12.9406ZM 2.12875 14.4228C 2.31911 14.6228 2.6356 14.6307 2.83564 14.4403C 3.03568 14.2499 3.04352 13.9334 2.85316 13.7334L 2.12875 14.4228ZM 5.23795 15.9189C 5.024 15.7443 4.70903 15.7762 4.53445 15.9902C 4.35987 16.2041 4.39178 16.5191 4.60573 16.6937L 5.23795 15.9189ZM 5.39768 17.3241C 5.6154 17.494 5.9296 17.4552 6.09945 17.2374C 6.2693 17.0197 6.23049 16.7055 6.01276 16.5357L 5.39768 17.3241ZM 8.18267 18.1331C 7.95587 17.9756 7.64431 18.0317 7.48677 18.2585C 7.32923 18.4853 7.38538 18.7969 7.61218 18.9544L 8.18267 18.1331ZM -0.5 7.62939e-07L -0.5 0.617816L 0.5 0.617816L 0.5 7.62939e-07L -0.5 7.62939e-07ZM -0.5 4.33719L -0.5 5.57282L 0.5 5.57282L 0.5 4.33719L -0.5 4.33719ZM -0.5 9.29219L -0.5 9.91L 0.5 9.91L 0.5 9.29219L -0.5 9.29219ZM -0.5 9.91C -0.5 10.1185 -0.466017 10.3431 -0.403053 10.5787L 0.563042 10.3205C 0.517091 10.1485 0.5 10.0123 0.5 9.91L -0.5 9.91ZM 1.37661 13.5841C 1.60359 13.8541 1.85385 14.1339 2.12875 14.4228L 2.85316 13.7334C 2.59158 13.4585 2.3551 13.194 2.1421 12.9406L 1.37661 13.5841ZM 4.60573 16.6937C 4.74702 16.809 4.89178 16.9252 5.04005 17.0423L 5.65995 16.2577C 5.51575 16.1437 5.3751 16.0308 5.23795 15.9189L 4.60573 16.6937ZM 5.03863 17.0412C 5.15808 17.1363 5.27781 17.2306 5.39768 17.3241L 6.01276 16.5357C 5.89542 16.4441 5.77824 16.3518 5.66137 16.2588L 5.03863 17.0412ZM 7.61218 18.9544C 7.73856 19.0422 7.86409 19.1285 7.9886 19.2133L 8.5514 18.3867C 8.42946 18.3037 8.30649 18.2191 8.18267 18.1331L 7.61218 18.9544Z"/>
<path id="path3_stroke" d="M -0.5 0.62C -0.5 0.896142 -0.276143 1.12 -2.28882e-07 1.12C 0.276142 1.12 0.5 0.896142 0.5 0.62L -0.5 0.62ZM -2.28882e-07 0.12L -0.121267 -0.365071C -0.343851 -0.309426 -0.5 -0.109434 -0.5 0.12L -2.28882e-07 0.12ZM 0.601266 0.485073C 0.869164 0.418099 1.03204 0.146632 0.965071 -0.121266C 0.898097 -0.389163 0.62663 -0.552044 0.358732 -0.48507L 0.601266 0.485073ZM 0.5 0.62L 0.5 0.12L -0.5 0.12L -0.5 0.62L 0.5 0.62ZM 0.121267 0.605071L 0.601266 0.485073L 0.358732 -0.48507L -0.121267 -0.365071L 0.121267 0.605071Z"/>
<path id="path4_stroke" d="M -0.167516 2.1989C -0.4277 2.29141 -0.56362 2.57733 -0.471104 2.83752C -0.378588 3.0977 -0.092668 3.23362 0.167515 3.1411L -0.167516 2.1989ZM 6.32299 0.442402C 6.56732 0.313727 6.66107 0.0113468 6.5324 -0.232984C 6.40373 -0.477315 6.10134 -0.571073 5.85701 -0.442398L 6.32299 0.442402ZM 0.562043 2.99883C 0.82139 2.904 0.954755 2.61688 0.859921 2.35753C 0.765087 2.09818 0.477966 1.96482 0.218619 2.05965L 0.562043 2.99883ZM 2.51535 1.14919C 2.26147 1.25781 2.14371 1.55168 2.25232 1.80556C 2.36094 2.05944 2.65481 2.1772 2.90869 2.06858L 2.51535 1.14919ZM 3.67689 1.73179C 3.92879 1.61866 4.04129 1.32274 3.92816 1.07083C 3.81503 0.818929 3.51911 0.70643 3.26721 0.819561L 3.67689 1.73179ZM 5.49298 -0.252751C 5.24751 -0.126261 5.15106 0.175271 5.27754 0.42074C 5.40403 0.666209 5.70557 0.762661 5.95104 0.636171L 5.49298 -0.252751ZM 0.167515 3.1411C 0.299245 3.09426 0.430755 3.04684 0.562043 2.99883L 0.218619 2.05965C 0.0901242 2.10664 -0.0385887 2.15305 -0.167516 2.1989L 0.167515 3.1411ZM 2.90869 2.06858C 3.16575 1.95861 3.42183 1.84634 3.67689 1.73179L 3.26721 0.819561C 3.01757 0.931672 2.76694 1.04155 2.51535 1.14919L 2.90869 2.06858ZM 5.95104 0.636171C 6.0753 0.572139 6.19928 0.507549 6.32299 0.442402L 5.85701 -0.442398C 5.73594 -0.378637 5.61459 -0.31542 5.49298 -0.252751L 5.95104 0.636171Z"/>
<path id="path5_stroke" d="M -0.263176 -0.165133C -0.49797 -0.0197842 -0.57048 0.288383 -0.425131 0.523177C -0.279783 0.757971 0.0283839 0.830481 0.263178 0.685133L -0.263176 -0.165133ZM 0.42 1.67847e-06L 0.678708 -0.427865C 0.518032 -0.525017 0.316472 -0.523961 0.156823 -0.425131L 0.42 1.67847e-06ZM 0.591292 0.687867C 0.827596 0.830747 1.13499 0.755013 1.27787 0.518708C 1.42075 0.282404 1.34501 -0.0249862 1.10871 -0.167867L 0.591292 0.687867ZM 0.263178 0.685133L 0.683176 0.425135L 0.156823 -0.425131L -0.263176 -0.165133L 0.263178 0.685133ZM 0.161291 0.427868L 0.591292 0.687867L 1.10871 -0.167867L 0.678708 -0.427865L 0.161291 0.427868Z"/>
<path id="path6_stroke" d="M 0.219194 -0.449392C -0.0289988 -0.57045 -0.328335 -0.467386 -0.449393 -0.219193C -0.57045 0.0290002 -0.467386 0.328337 -0.219193 0.449394L 0.219194 -0.449392ZM 6.05013 2.94701C 6.31357 3.02978 6.59424 2.88332 6.67701 2.61987C 6.75978 2.35643 6.61332 2.07576 6.34987 1.99299L 6.05013 2.94701ZM 0.162038 0.633138C 0.411353 0.751867 0.709712 0.646006 0.828441 0.396691C 0.94717 0.147376 0.841309 -0.150983 0.591994 -0.269712L 0.162038 0.633138ZM 2.85517 0.731364C 2.59961 0.626768 2.30764 0.749154 2.20304 1.00472C 2.09845 1.26029 2.22083 1.55226 2.4764 1.65685L 2.85517 0.731364ZM 3.26269 1.9701C 3.52017 2.0699 3.8098 1.94207 3.90959 1.68459C 4.00939 1.42711 3.88156 1.13748 3.62408 1.03768L 3.26269 1.9701ZM 5.95565 1.8671C 5.69299 1.78186 5.41096 1.92569 5.32573 2.18835C 5.2405 2.45101 5.38433 2.73303 5.64699 2.81827L 5.95565 1.8671ZM -0.219193 0.449394C -0.0923929 0.511241 0.0346854 0.57249 0.162038 0.633138L 0.591994 -0.269712C 0.467458 -0.329019 0.34319 -0.388913 0.219194 -0.449392L -0.219193 0.449394ZM 2.4764 1.65685C 2.73751 1.76372 2.99962 1.86814 3.26269 1.9701L 3.62408 1.03768C 3.36683 0.937979 3.11051 0.835868 2.85517 0.731364L 2.4764 1.65685ZM 5.64699 2.81827C 5.78115 2.86181 5.91554 2.90472 6.05013 2.94701L 6.34987 1.99299C 6.21826 1.95164 6.08685 1.90967 5.95565 1.8671L 5.64699 2.81827Z"/>
<path id="path7_stroke" d="M 0.121266 -0.485071C -0.146632 -0.552045 -0.418099 -0.389164 -0.485073 -0.121266C -0.552047 0.146631 -0.389166 0.418098 -0.121268 0.485072L 0.121266 -0.485071ZM 0.479998 0.12L 0.979998 0.12C 0.979998 -0.109435 0.823849 -0.309426 0.601265 -0.365072L 0.479998 0.12ZM -0.0200017 0.64C -0.0200017 0.916142 0.203856 1.14 0.479998 1.14C 0.756141 1.14 0.979998 0.916142 0.979998 0.64L -0.0200017 0.64ZM -0.121268 0.485072L 0.358731 0.605071L 0.601265 -0.365072L 0.121266 -0.485071L -0.121268 0.485072ZM -0.0200017 0.12L -0.0200017 0.64L 0.979998 0.64L 0.979998 0.12L -0.0200017 0.12Z"/>
<path id="path8_stroke" d="M 10.11 0C 10.11 -0.276142 9.88614 -0.5 9.61 -0.5C 9.33386 -0.5 9.11 -0.276142 9.11 0L 10.11 0ZM 4.06 15.19L 3.75284 14.7955L 3.75207 14.7961L 4.06 15.19ZM -0.273343 17.6513C -0.504567 17.8023 -0.56963 18.1121 -0.418666 18.3433C -0.267702 18.5746 0.0421228 18.6396 0.273346 18.4887L -0.273343 17.6513ZM 0.797681 18.1433C 1.02767 17.9905 1.09021 17.6802 0.937376 17.4502C 0.784538 17.2202 0.474195 17.1576 0.244206 17.3105L 0.797681 18.1433ZM 3.26315 15.1729C 3.04333 15.3401 3.00061 15.6538 3.16774 15.8736C 3.33487 16.0934 3.64856 16.1361 3.86838 15.969L 3.26315 15.1729ZM 4.77889 15.2604C 4.99493 15.0884 5.03063 14.7738 4.85863 14.5578C 4.68663 14.3418 4.37207 14.3061 4.15604 14.4781L 4.77889 15.2604ZM 6.47163 12.4816C 6.27107 12.6714 6.26236 12.9879 6.45218 13.1884C 6.642 13.389 6.95847 13.3977 7.15902 13.2079L 6.47163 12.4816ZM 7.91238 12.4656C 8.10483 12.2676 8.10031 11.951 7.90227 11.7586C 7.70424 11.5661 7.38769 11.5707 7.19524 11.7687L 7.91238 12.4656ZM 9.00276 9.45789C 8.88097 9.70573 8.98316 10.0054 9.23099 10.1272C 9.47883 10.2489 9.77847 10.1468 9.90025 9.89892L 9.00276 9.45789ZM 10.11 8.61418C 10.11 8.33804 9.88614 8.11418 9.61 8.11418C 9.33386 8.11418 9.11 8.33804 9.11 8.61418L 10.11 8.61418ZM 9.11 5.17081C 9.11 5.44696 9.33386 5.67081 9.61 5.67081C 9.88614 5.67081 10.11 5.44696 10.11 5.17081L 9.11 5.17081ZM 10.11 4.01919C 10.11 3.74304 9.88614 3.51919 9.61 3.51919C 9.33386 3.51919 9.11 3.74304 9.11 4.01919L 10.11 4.01919ZM 9.11 0.575815C 9.11 0.851957 9.33386 1.07581 9.61 1.07581C 9.88614 1.07581 10.11 0.851957 10.11 0.575815L 9.11 0.575815ZM 0.273346 18.4887C 0.443935 18.3773 0.618928 18.2621 0.797681 18.1433L 0.244206 17.3105C 0.0678699 17.4277 -0.104854 17.5413 -0.273343 17.6513L 0.273346 18.4887ZM 3.86838 15.969C 4.03473 15.8425 4.20137 15.7141 4.36793 15.5839L 3.75207 14.7961C 3.58917 14.9234 3.42608 15.0491 3.26315 15.1729L 3.86838 15.969ZM 4.36716 15.5845C 4.5076 15.4752 4.64483 15.3671 4.77889 15.2604L 4.15604 14.4781C 4.02484 14.5825 3.89047 14.6883 3.75284 14.7955L 4.36716 15.5845ZM 7.15902 13.2079C 7.43297 12.9486 7.68355 12.7011 7.91238 12.4656L 7.19524 11.7687C 6.9766 11.9937 6.73597 12.2314 6.47163 12.4816L 7.15902 13.2079ZM 9.90025 9.89892C 10.018 9.65941 10.11 9.40907 10.11 9.19L 9.11 9.19C 9.11 9.16806 9.11354 9.17908 9.09563 9.23581C 9.07932 9.28751 9.05029 9.36117 9.00276 9.45789L 9.90025 9.89892ZM 10.11 9.19L 10.11 8.61418L 9.11 8.61418L 9.11 9.19L 10.11 9.19ZM 10.11 5.17081L 10.11 4.01919L 9.11 4.01919L 9.11 5.17081L 10.11 5.17081ZM 10.11 0.575815L 10.11 0L 9.11 0L 9.11 0.575815L 10.11 0.575815Z"/>
<path id="path9_stroke" d="M 69.2737 40.5933L 69.5963 39.6468L 69.0624 39.4647L 68.6304 39.8276L 69.2737 40.5933ZM 74.5937 20.9833L 73.6517 21.3189L 73.841 21.8503L 74.3937 21.9631L 74.5937 20.9833ZM 57.8537 9.16327L 57.8547 8.16325L 57.8477 8.16329L 57.8537 9.16327ZM 54.8537 9.44327L 54.0447 10.0311L 54.4143 10.5398L 55.0329 10.4271L 54.8537 9.44327ZM 16.0337 12.2633L 16.0337 13.2633L 16.6382 13.2633L 16.9191 12.728L 16.0337 12.2633ZM 14.8037 12.2033L 14.8007 13.2033L 14.8037 13.2033L 14.8037 12.2033ZM 57.8521 45.7433C 62.2649 45.7503 66.5382 44.1974 69.9169 41.3589L 68.6304 39.8276C 65.6129 42.3627 61.7964 43.7496 57.8553 43.7433L 57.8521 45.7433ZM 68.951 41.5398C 70.3973 42.0328 71.9294 42.2241 73.4525 42.1019L 73.2925 40.1083C 72.0419 40.2087 70.7839 40.0516 69.5963 39.6468L 68.951 41.5398ZM 73.4525 42.1019C 74.9757 41.9797 76.4576 41.5465 77.8068 40.8291L 76.8679 39.0632C 75.76 39.6523 74.5432 40.0079 73.2925 40.1083L 73.4525 42.1019ZM 77.8068 40.8291C 79.156 40.1118 80.3438 39.1255 81.2969 37.9311L 79.7336 36.6836C 78.951 37.6643 77.9757 38.4742 76.8679 39.0632L 77.8068 40.8291ZM 81.2969 37.9311C 82.25 36.7367 82.9481 35.3597 83.3482 33.8849L 81.418 33.3613C 81.0895 34.5722 80.5162 35.7029 79.7336 36.6836L 81.2969 37.9311ZM 83.3482 33.8849C 83.7483 32.4102 83.8418 30.8691 83.623 29.3568L 81.6436 29.6432C 81.8233 30.8849 81.7465 32.1504 81.418 33.3613L 83.3482 33.8849ZM 83.623 29.3568C 83.4042 27.8445 82.8777 26.3931 82.076 25.0923L 80.3734 26.1415C 81.0316 27.2097 81.464 28.4014 81.6436 29.6432L 83.623 29.3568ZM 82.076 25.0923C 81.2744 23.7914 80.2145 22.6687 78.962 21.7934L 77.8164 23.4328C 78.8449 24.1515 79.7151 25.0734 80.3734 26.1415L 82.076 25.0923ZM 78.962 21.7934C 77.7095 20.9182 76.2908 20.309 74.7936 20.0035L 74.3937 21.9631C 75.6231 22.2139 76.788 22.7142 77.8164 23.4328L 78.962 21.7934ZM 75.5357 20.6477C 74.2354 16.9977 71.8385 13.8389 68.6733 11.604L 67.5197 13.2377C 70.348 15.2348 72.4898 18.0573 73.6517 21.3189L 75.5357 20.6477ZM 68.6733 11.604C 65.5081 9.36904 61.7294 8.16728 57.8547 8.16327L 57.8526 10.1633C 61.3149 10.1668 64.6914 11.2407 67.5197 13.2377L 68.6733 11.604ZM 57.8477 8.16329C 56.7834 8.16965 55.7216 8.26874 54.6745 8.45946L 55.0329 10.4271C 55.9657 10.2572 56.9115 10.1689 57.8596 10.1633L 57.8477 8.16329ZM 55.6627 8.85546C 53.2724 5.5657 50.0825 2.93992 46.3947 1.2264L 45.5519 3.04017C 48.9313 4.61036 51.8543 7.0165 54.0447 10.0311L 55.6627 8.85546ZM 46.3947 1.2264C 42.7069 -0.487128 38.643 -1.23178 34.5872 -0.937156L 34.7321 1.05759C 38.4486 0.787608 42.1726 1.46997 45.5519 3.04017L 46.3947 1.2264ZM 34.5872 -0.937156C 30.5314 -0.642532 26.6178 0.681632 23.2163 2.91014L 24.3124 4.58307C 27.4293 2.54097 31.0156 1.32757 34.7321 1.05759L 34.5872 -0.937156ZM 23.2163 2.91014C 19.8149 5.13865 17.038 8.19787 15.1482 11.7986L 16.9191 12.728C 18.6508 9.42849 21.1954 6.62517 24.3124 4.58307L 23.2163 2.91014ZM 16.0337 11.2633C 15.8768 11.2633 15.7117 11.2515 15.4991 11.2359C 15.299 11.2213 15.0559 11.2033 14.8037 11.2033L 14.8037 13.2033C 14.9715 13.2033 15.1433 13.2153 15.3532 13.2306C 15.5507 13.2451 15.7906 13.2633 16.0337 13.2633L 16.0337 11.2633ZM 14.8066 11.2033C 12.431 11.1962 10.0846 11.7264 7.94277 12.754L 8.8079 14.5572C 10.6779 13.66 12.7266 13.1971 14.8007 13.2033L 14.8066 11.2033ZM 7.94277 12.754C 5.80093 13.7816 3.91911 15.2801 2.43801 17.1374L 4.00171 18.3843C 5.29485 16.7627 6.93787 15.4543 8.8079 14.5572L 7.94277 12.754ZM 2.43801 17.1374C 0.956912 18.9948 -0.0851322 21.1629 -0.610209 23.4798L 1.34033 23.9218C 1.79877 21.899 2.70857 20.006 4.00171 18.3843L 2.43801 17.1374ZM -0.610209 23.4798C -1.13529 25.7966 -1.12981 28.2022 -0.594184 30.5166L 1.35432 30.0657C 0.886665 28.045 0.881883 25.9447 1.34033 23.9218L -0.610209 23.4798ZM -0.594184 30.5166C -0.0585607 32.831 0.993348 34.9944 2.48289 36.845L 4.0409 35.591C 2.74039 33.9752 1.82197 32.0864 1.35432 30.0657L -0.594184 30.5166ZM 2.48289 36.845C 3.97243 38.6956 5.86106 40.1855 8.00756 41.2034L 8.86447 39.3962C 6.99037 38.5076 5.34141 37.2067 4.0409 35.591L 2.48289 36.845ZM 8.00756 41.2034C 10.1541 42.2212 12.5029 42.7406 14.8784 42.7228L 14.8634 40.7228C 12.7893 40.7384 10.7386 40.2849 8.86447 39.3962L 8.00756 41.2034ZM 14.8784 42.7228C 17.2539 42.7049 19.5947 42.1503 21.7257 41.1003L 20.8417 39.3063C 18.9812 40.223 16.9374 40.7072 14.8634 40.7228L 14.8784 42.7228Z"/>
<path id="path10_stroke" d="M 0.740003 0.87C 1.01615 0.87 1.24 0.646142 1.24 0.37C 1.24 0.0938575 1.01615 -0.13 0.740003 -0.13L 0.740003 0.87ZM 0.240003 0.37L -0.179475 0.6421C -0.087285 0.784223 0.0705981 0.87 0.240003 0.87L 0.240003 0.37ZM 0.419475 -0.2721C 0.269198 -0.503771 -0.0404316 -0.569754 -0.272103 -0.419478C -0.503774 -0.269201 -0.569757 0.0404288 -0.419481 0.2721L 0.419475 -0.2721ZM 0.740003 -0.13L 0.240003 -0.13L 0.240003 0.87L 0.740003 0.87L 0.740003 -0.13ZM 0.659481 0.0978999L 0.419475 -0.2721L -0.419481 0.2721L -0.179475 0.6421L 0.659481 0.0978999Z"/>
<path id="path11_stroke" d="M 27.6106 7.19024C 27.7838 7.4053 28.0986 7.43921 28.3136 7.26599C 28.5287 7.09277 28.5626 6.77801 28.3894 6.56296L 27.6106 7.19024ZM 21.8506 1.93194L 22.0733 1.4843L 21.8506 1.93194ZM 14.1977 0.00869718L 14.1824 0.508462L 14.1977 0.00869718ZM 6.44128 1.45866L 6.24643 0.998186L 6.44128 1.45866ZM -0.369415 5.67965C -0.555507 5.88367 -0.540972 6.19992 -0.336951 6.38601C -0.13293 6.5721 0.183318 6.55757 0.36941 6.35355L -0.369415 5.67965ZM 0.699238 6.00156C 0.890745 5.80261 0.884712 5.48608 0.685765 5.29458C 0.486818 5.10307 0.170293 5.1091 -0.0212133 5.30805L 0.699238 6.00156ZM 2.2736 3.2808C 2.05255 3.44631 2.00752 3.75967 2.17303 3.98072C 2.33854 4.20177 2.6519 4.24679 2.87295 4.08129L 2.2736 3.2808ZM 3.6604 3.52408C 3.89002 3.37069 3.95181 3.06019 3.79842 2.83057C 3.64503 2.60095 3.33453 2.53916 3.10491 2.69255L 3.6604 3.52408ZM 5.78015 1.20292C 5.52883 1.31733 5.41783 1.61382 5.53224 1.86515C 5.64665 2.11647 5.94314 2.22747 6.19446 2.11306L 5.78015 1.20292ZM 7.08286 1.73713C 7.33997 1.63639 7.46673 1.34629 7.36599 1.08918C 7.26524 0.83207 6.97515 0.705308 6.71804 0.80605L 7.08286 1.73713ZM 9.64994 -0.0770359C 9.37996 -0.0190188 9.20813 0.246875 9.26615 0.516854C 9.32417 0.786832 9.59006 0.958661 9.86004 0.900644L 9.64994 -0.0770359ZM 10.8083 0.723386C 11.081 0.679956 11.2668 0.423677 11.2234 0.150972C 11.18 -0.121734 10.9237 -0.307599 10.651 -0.264169L 10.8083 0.723386ZM 13.7039 -0.499861C 13.4278 -0.500919 13.2031 -0.277921 13.202 -0.0017808C 13.2009 0.27436 13.4239 0.499074 13.7001 0.500132L 13.7039 -0.499861ZM 14.6643 0.529747C 14.94 0.545637 15.1763 0.335032 15.1922 0.0593476C 15.2081 -0.216337 14.9975 -0.452706 14.7218 -0.468596L 14.6643 0.529747ZM 17.7545 -0.0459884C 17.485 -0.106073 17.2178 0.0637136 17.1577 0.33324C 17.0976 0.602766 17.2674 0.869969 17.537 0.930053L 17.7545 -0.0459884ZM 18.4725 1.16517C 18.7384 1.23965 19.0144 1.08446 19.0888 0.818551C 19.1633 0.552641 19.0081 0.276704 18.7422 0.202227L 18.4725 1.16517ZM 21.6144 1.26358C 21.364 1.14725 21.0666 1.25597 20.9503 1.50641C 20.834 1.75686 20.9427 2.05418 21.1931 2.17052L 21.6144 1.26358ZM 22.0568 2.60026C 22.3006 2.72988 22.6033 2.63729 22.733 2.39345C 22.8626 2.14962 22.77 1.84688 22.5262 1.71726L 22.0568 2.60026ZM 25.1049 3.36827C 24.8852 3.20107 24.5715 3.24369 24.4043 3.46347C 24.2371 3.68324 24.2797 3.99694 24.4995 4.16413L 25.1049 3.36827ZM 25.2512 4.76862C 25.4617 4.94738 25.7772 4.92167 25.956 4.7112C 26.1348 4.50072 26.1091 4.18519 25.8986 4.00643L 25.2512 4.76862ZM 28.0647 6.17069C 27.8857 5.96036 27.5702 5.93492 27.3598 6.11385C 27.1495 6.29279 27.1241 6.60835 27.303 6.81867L 28.0647 6.17069ZM 0.36941 6.35355C 0.477846 6.23466 0.587801 6.11732 0.699238 6.00156L -0.0212133 5.30805C -0.138859 5.43027 -0.254939 5.55414 -0.369415 5.67965L 0.36941 6.35355ZM 2.87295 4.08129C 3.13039 3.88853 3.39297 3.70273 3.6604 3.52408L 3.10491 2.69255C 2.82259 2.88115 2.54538 3.07731 2.2736 3.2808L 2.87295 4.08129ZM 6.19446 2.11306C 6.34071 2.04649 6.48795 1.98183 6.63613 1.91913L 6.24643 0.998186C 6.08999 1.06439 5.93455 1.13264 5.78015 1.20292L 6.19446 2.11306ZM 6.63613 1.91913C 6.78432 1.85642 6.93324 1.79575 7.08286 1.73713L 6.71804 0.80605C 6.56009 0.867938 6.40287 0.931986 6.24643 0.998186L 6.63613 1.91913ZM 9.86004 0.900644C 10.1745 0.833075 10.4907 0.773967 10.8083 0.723386L 10.651 -0.264169C 10.3157 -0.21077 9.98189 -0.14837 9.64994 -0.0770359L 9.86004 0.900644ZM 13.7001 0.500132C 13.8608 0.500748 14.0216 0.503522 14.1824 0.508462L 14.2131 -0.491067C 14.0433 -0.496282 13.8736 -0.499211 13.7039 -0.499861L 13.7001 0.500132ZM 14.1824 0.508462C 14.3432 0.513401 14.5039 0.5205 14.6643 0.529747L 14.7218 -0.468596C 14.5525 -0.478358 14.3829 -0.485852 14.2131 -0.491067L 14.1824 0.508462ZM 17.537 0.930053C 17.8509 1.00003 18.1628 1.07843 18.4725 1.16517L 18.7422 0.202227C 18.4153 0.110656 18.0859 0.0278873 17.7545 -0.0459884L 17.537 0.930053ZM 21.1931 2.17052C 21.3389 2.23821 21.4838 2.3079 21.6278 2.37959L 22.0733 1.4843C 21.9212 1.40862 21.7683 1.33505 21.6144 1.26358L 21.1931 2.17052ZM 21.6278 2.37959C 21.7719 2.45127 21.9149 2.52484 22.0568 2.60026L 22.5262 1.71726C 22.3764 1.63764 22.2254 1.55997 22.0733 1.4843L 21.6278 2.37959ZM 24.4995 4.16413C 24.7554 4.35886 25.0061 4.56043 25.2512 4.76862L 25.8986 4.00643C 25.6398 3.78664 25.3752 3.57384 25.1049 3.36827L 24.4995 4.16413ZM 27.303 6.81867C 27.4071 6.94106 27.5097 7.06493 27.6106 7.19024L 28.3894 6.56296C 28.2828 6.43066 28.1746 6.2999 28.0647 6.17069L 27.303 6.81867Z"/>
<path id="path12_stroke" d="M 1.2 0.299999C 1.36569 0.0790854 1.32091 -0.234315 1.1 -0.4C 0.879086 -0.565686 0.565685 -0.520914 0.4 -0.299999L 1.2 0.299999ZM 0.500001 0.4L 0.421006 0.89372C 0.604249 0.923039 0.788658 0.848459 0.900002 0.7L 0.500001 0.4ZM 0.0789966 -0.17372C -0.193678 -0.217348 -0.450091 -0.0316692 -0.493719 0.241005C -0.537347 0.513679 -0.351668 0.770093 -0.0789938 0.813721L 0.0789966 -0.17372ZM 0.4 -0.299999L 0.100001 0.100001L 0.900002 0.7L 1.2 0.299999L 0.4 -0.299999ZM 0.578997 -0.0937202L 0.0789966 -0.17372L -0.0789938 0.813721L 0.421006 0.89372L 0.578997 -0.0937202Z"/>
<path id="path13_stroke" d="M 6.74884 0.497609C 7.02367 0.470632 7.22458 0.225977 7.19761 -0.0488444C 7.17063 -0.323666 6.92598 -0.524585 6.65116 -0.497609L 6.74884 0.497609ZM -0.284761 2.04901C -0.511744 2.20628 -0.568258 2.51778 -0.41099 2.74476C -0.253721 2.97174 0.0577763 3.02826 0.284759 2.87099L -0.284761 2.04901ZM 0.646228 2.62894C 0.878089 2.47896 0.944464 2.16941 0.79448 1.93755C 0.644496 1.70569 0.33495 1.63931 0.103089 1.7893L 0.646228 2.62894ZM 2.58502 0.500637C 2.32895 0.603996 2.20516 0.89537 2.30852 1.15144C 2.41187 1.40751 2.70325 1.53131 2.95932 1.42795L 2.58502 0.500637ZM 3.77595 1.12811C 4.03806 1.04121 4.1801 0.75828 4.0932 0.496167C 4.0063 0.234054 3.72337 0.0920155 3.46126 0.178915L 3.77595 1.12811ZM 6.1874 -0.444641C 5.91357 -0.408955 5.72052 -0.158045 5.75621 0.115782C 5.79189 0.389609 6.0428 0.58266 6.31663 0.546973L 6.1874 -0.444641ZM 0.284759 2.87099C 0.404076 2.78832 0.524582 2.70763 0.646228 2.62894L 0.103089 1.7893C -0.0274357 1.87373 -0.156737 1.96031 -0.284761 2.04901L 0.284759 2.87099ZM 2.95932 1.42795C 3.22829 1.31938 3.50063 1.21939 3.77595 1.12811L 3.46126 0.178915C 3.16585 0.276853 2.87362 0.384149 2.58502 0.500637L 2.95932 1.42795ZM 6.31663 0.546973C 6.46029 0.52825 6.60438 0.511789 6.74884 0.497609L 6.65116 -0.497609C 6.49615 -0.482393 6.34154 -0.464731 6.1874 -0.444641L 6.31663 0.546973Z"/>
<path id="path14_stroke" d="M 0.708313 0.368163C 0.911644 0.181318 0.925008 -0.134982 0.738163 -0.338313C 0.551318 -0.541644 0.235018 -0.555008 0.0316868 -0.368163L 0.708313 0.368163ZM 1.06812e-06 0.34L -0.338312 -0.028163C -0.448517 0.0731067 -0.507561 0.21842 -0.499222 0.367856C -0.490884 0.517292 -0.416041 0.655134 -0.295254 0.743515L 1.06812e-06 0.34ZM 0.114746 1.04352C 0.337601 1.20658 0.650451 1.15811 0.813516 0.935256C 0.976581 0.7124 0.928111 0.39955 0.705256 0.236485L 0.114746 1.04352ZM 0.0316868 -0.368163L -0.338312 -0.028163L 0.338314 0.708163L 0.708313 0.368163L 0.0316868 -0.368163ZM -0.295254 0.743515L 0.114746 1.04352L 0.705256 0.236485L 0.295256 -0.0635148L -0.295254 0.743515Z"/>
<path id="path15_stroke" d="M 0.343504 -0.363323C 0.142846 -0.553036 -0.173612 -0.544163 -0.363325 -0.343505C -0.553038 -0.142847 -0.544165 0.173611 -0.343507 0.363324L 0.343504 -0.363323ZM 1.19412 1.96972C 1.37622 2.17731 1.69212 2.19798 1.89972 2.01588C 2.10731 1.83378 2.12798 1.51787 1.94588 1.31028L 1.19412 1.96972ZM -0.142975 0.555567C 0.0550532 0.748024 0.371603 0.743507 0.56406 0.545479C 0.756516 0.347451 0.751999 0.0309003 0.553971 -0.161556L -0.142975 0.555567ZM 1.75395 1.09357C 1.56986 0.887736 1.25377 0.870108 1.04794 1.05419C 0.842104 1.23828 0.824476 1.55437 1.00856 1.7602L 1.75395 1.09357ZM -0.343507 0.363324C -0.276244 0.426918 -0.209406 0.491005 -0.142975 0.555567L 0.553971 -0.161556C 0.48432 -0.229248 0.414171 -0.296511 0.343504 -0.363323L -0.343507 0.363324ZM 1.00856 1.7602C 1.0707 1.82968 1.13255 1.89953 1.19412 1.96972L 1.94588 1.31028C 1.88226 1.23776 1.81829 1.16551 1.75395 1.09357L 1.00856 1.7602Z"/>
<path id="path16_stroke" d="M 0.403512 -0.295256C 0.240447 -0.518111 -0.0724038 -0.566579 -0.295258 -0.403513C -0.518113 -0.240447 -0.566581 0.0724035 -0.403515 0.295258L 0.403512 -0.295256ZM 0.300002 0.410001L -0.103512 0.705258C 0.00766303 0.857195 0.19476 0.933803 0.380568 0.903467L 0.300002 0.410001ZM 0.870566 0.823467C 1.1431 0.778972 1.32796 0.521969 1.28347 0.249435C 1.23897 -0.0230993 0.981967 -0.207961 0.709434 -0.163466L 0.870566 0.823467ZM -0.403515 0.295258L -0.103512 0.705258L 0.703516 0.114744L 0.403512 -0.295256L -0.403515 0.295258ZM 0.380568 0.903467L 0.870566 0.823467L 0.709434 -0.163466L 0.219436 -0.0834656L 0.380568 0.903467Z"/>
<path id="path17_stroke" d="M 0.0172237 -0.499703C -0.258755 -0.509216 -0.490192 -0.293204 -0.499705 -0.0172253C -0.509218 0.258753 -0.293206 0.49019 -0.0172274 0.499703L 0.0172237 -0.499703ZM 14.8912 10.1503C 15.0128 10.3982 15.3124 10.5005 15.5603 10.3789C 15.8082 10.2572 15.9105 9.95759 15.7889 9.7097L 14.8912 10.1503ZM 0.566284 0.529705C 0.841783 0.548547 1.08039 0.340486 1.09924 0.064987C 1.11808 -0.210512 0.910016 -0.449122 0.634517 -0.467964L 0.566284 0.529705ZM 4.2723 0.154491C 4.00621 0.0806635 3.73065 0.236523 3.65682 0.502614C 3.583 0.768704 3.73886 1.04426 4.00495 1.11809L 4.2723 0.154491ZM 5.1196 1.46837C 5.38009 1.56001 5.66555 1.42314 5.7572 1.16265C 5.84885 0.902161 5.71198 0.616696 5.45149 0.525047L 5.1196 1.46837ZM 8.79142 2.09532C 8.55467 1.95319 8.24752 2.02989 8.10538 2.26665C 7.96325 2.5034 8.03996 2.81055 8.27671 2.95269L 8.79142 2.09532ZM 9.25754 3.5876C 9.48415 3.74542 9.79578 3.68965 9.95359 3.46305C 10.1114 3.23644 10.0556 2.92481 9.82903 2.767L 9.25754 3.5876ZM 12.6291 5.1713C 12.4388 4.97116 12.1223 4.96316 11.9222 5.15342C 11.7221 5.34368 11.7141 5.66017 11.9043 5.8603L 12.6291 5.1713ZM 12.6802 6.73385C 12.8565 6.94639 13.1718 6.97577 13.3843 6.79947C 13.5968 6.62318 13.6262 6.30796 13.4499 6.09542L 12.6802 6.73385ZM 15.5072 9.15951C 15.3772 8.91587 15.0743 8.82374 14.8307 8.95372C 14.587 9.0837 14.4949 9.38658 14.6249 9.63022L 15.5072 9.15951ZM -0.0172274 0.499703C 0.177645 0.506421 0.372175 0.51643 0.566284 0.529705L 0.634517 -0.467964C 0.429169 -0.482008 0.223377 -0.492596 0.0172237 -0.499703L -0.0172274 0.499703ZM 4.00495 1.11809C 4.38034 1.22224 4.7521 1.33907 5.1196 1.46837L 5.45149 0.525047C 5.06272 0.388265 4.66943 0.264675 4.2723 0.154491L 4.00495 1.11809ZM 8.27671 2.95269C 8.44352 3.05283 8.60881 3.15589 8.7725 3.26185L 9.31591 2.42238C 9.14275 2.31029 8.96789 2.20126 8.79142 2.09532L 8.27671 2.95269ZM 8.7725 3.26185C 8.93618 3.36781 9.09788 3.47641 9.25754 3.5876L 9.82903 2.767C 9.66013 2.64937 9.48907 2.53447 9.31591 2.42238L 8.7725 3.26185ZM 11.9043 5.8603C 12.1727 6.14265 12.4315 6.434 12.6802 6.73385L 13.4499 6.09542C 13.1868 5.77821 12.913 5.46999 12.6291 5.1713L 11.9043 5.8603ZM 14.6249 9.63022C 14.7165 9.80188 14.8052 9.97526 14.8912 10.1503L 15.7889 9.7097C 15.698 9.52453 15.6041 9.34111 15.5072 9.15951L 14.6249 9.63022Z"/>
<path id="path18_stroke" d="M 0.470188 -0.170067C 0.376263 -0.429745 0.0896108 -0.564114 -0.170067 -0.470189C -0.429745 -0.376263 -0.564114 -0.0896114 -0.470189 0.170067L 0.470188 -0.170067ZM 0.169998 0.469999L -0.300191 0.640066C -0.242115 0.80063 -0.106119 0.920458 0.060479 0.957858L 0.169998 0.469999ZM 0.550484 1.06786C 0.819921 1.12834 1.08738 0.958955 1.14786 0.689519C 1.20835 0.420082 1.03896 0.152627 0.769522 0.0921417L 0.550484 1.06786ZM -0.470189 0.170067L -0.300191 0.640066L 0.640186 0.299933L 0.470188 -0.170067L -0.470189 0.170067ZM 0.060479 0.957858L 0.550484 1.06786L 0.769522 0.0921417L 0.279516 -0.0178589L 0.060479 0.957858Z"/>
<path id="path19_stroke" d="M 0.257846 -0.428387C 0.021255 -0.570791 -0.285982 -0.494438 -0.428387 -0.257847C -0.570792 -0.0212553 -0.494438 0.285982 -0.257847 0.428387L 0.257846 -0.428387ZM 3.71825 5.0418C 3.82418 5.29682 4.11678 5.41768 4.3718 5.31175C 4.62682 5.20582 4.74768 4.91321 4.64175 4.6582L 3.71825 5.0418ZM 0.0689862 0.634029C 0.299755 0.785687 0.609774 0.721555 0.761432 0.490786C 0.91309 0.260017 0.848958 -0.0500019 0.618189 -0.20166L 0.0689862 0.634029ZM 2.57289 1.44689C 2.38447 1.24502 2.06807 1.23411 1.8662 1.42253C 1.66433 1.61095 1.65342 1.92734 1.84184 2.12922L 2.57289 1.44689ZM 2.34592 2.7141C 2.51777 2.93025 2.83231 2.96615 3.04846 2.7943C 3.26461 2.62244 3.30052 2.3079 3.12866 2.09175L 2.34592 2.7141ZM 4.47069 4.26834C 4.35474 4.01772 4.05759 3.90853 3.80696 4.02447C 3.55634 4.14041 3.44715 4.43757 3.56309 4.6882L 4.47069 4.26834ZM -0.257847 0.428387C -0.147388 0.494872 -0.0384271 0.563439 0.0689862 0.634029L 0.618189 -0.20166C 0.49976 -0.27949 0.379628 -0.355086 0.257846 -0.428387L -0.257847 0.428387ZM 1.84184 2.12922C 2.01752 2.31745 2.18568 2.51256 2.34592 2.7141L 3.12866 2.09175C 2.95199 1.86955 2.76658 1.65442 2.57289 1.44689L 1.84184 2.12922ZM 3.56309 4.6882C 3.61706 4.80485 3.66879 4.92274 3.71825 5.0418L 4.64175 4.6582C 4.58722 4.52693 4.53018 4.39696 4.47069 4.26834L 3.56309 4.6882Z"/>
<path id="path20_stroke" d="M 0.500001 0C 0.500001 -0.276142 0.276144 -0.5 1.2207e-06 -0.5C -0.276141 -0.5 -0.499999 -0.276142 -0.499999 0L 0.500001 0ZM 0.110002 0.48L -0.381434 0.572144C -0.354708 0.714682 -0.267412 0.838594 -0.142189 0.91174C -0.0169649 0.984886 0.133848 1.00006 0.271133 0.953325L 0.110002 0.48ZM 0.741134 0.793325C 1.00254 0.704334 1.14232 0.420279 1.05333 0.158868C 0.964338 -0.102542 0.680282 -0.242316 0.418872 -0.153325L 0.741134 0.793325ZM -0.499999 0C -0.499999 0.157081 -0.461194 0.295993 -0.435572 0.3823C -0.403359 0.490805 -0.390102 0.525916 -0.381434 0.572144L 0.601438 0.387855C 0.580106 0.274083 0.538362 0.149194 0.523075 0.0976996C 0.512878 0.0633518 0.506905 0.0402336 0.503334 0.0223095C 0.499884 0.00499155 0.500001 -0.00123342 0.500001 0L -0.499999 0ZM 0.271133 0.953325L 0.741134 0.793325L 0.418872 -0.153325L -0.0511296 0.00667442L 0.271133 0.953325Z"/>
<path id="path21_stroke" d="M -0.23381 0.748034C -0.477902 0.877162 -0.571098 1.17972 -0.44197 1.42381C -0.312842 1.6679 -0.0102876 1.76109 0.233804 1.63197L -0.23381 0.748034ZM 2.21178 0.406038C 2.43603 0.244893 2.48718 -0.0675289 2.32604 -0.291777C 2.16489 -0.516024 1.85247 -0.56718 1.62822 -0.406035L 2.21178 0.406038ZM 0.489952 1.49365C 0.731804 1.36038 0.819825 1.05628 0.686551 0.814424C 0.553277 0.572571 0.249177 0.484551 0.00732412 0.617825L 0.489952 1.49365ZM 1.40433 -0.24802C 1.17736 -0.090726 1.12088 0.220778 1.27818 0.447743C 1.43547 0.674708 1.74697 0.731187 1.97394 0.573892L 1.40433 -0.24802ZM 0.233804 1.63197C 0.319589 1.58658 0.404975 1.54048 0.489952 1.49365L 0.00732412 0.617825C -0.0726721 0.661907 -0.153053 0.705312 -0.23381 0.748034L 0.233804 1.63197ZM 1.97394 0.573892C 2.05369 0.518625 2.13297 0.462672 2.21178 0.406038L 1.62822 -0.406035C 1.55403 -0.352721 1.4794 -0.300048 1.40433 -0.24802L 1.97394 0.573892Z"/>
<path id="path22_stroke" d="M -0.322069 -0.062451C -0.533292 0.115424 -0.560326 0.43085 -0.382451 0.642073C -0.204576 0.853296 0.110851 0.880329 0.322073 0.702454L -0.322069 -0.062451ZM 0.379999 -1.83105e-06L 0.591446 -0.453092C 0.415021 -0.535425 0.206848 -0.507863 0.0579281 -0.382455L 0.379999 -1.83105e-06ZM 0.61855 0.663091C 0.868785 0.77987 1.16631 0.671682 1.28309 0.421447C 1.39986 0.171213 1.29168 -0.12631 1.04144 -0.243089L 0.61855 0.663091ZM 0.322073 0.702454L 0.702071 0.382451L 0.0579281 -0.382455L -0.322069 -0.062451L 0.322073 0.702454ZM 0.168553 0.453088L 0.61855 0.663091L 1.04144 -0.243089L 0.591446 -0.453092L 0.168553 0.453088Z"/>
<path id="path23_stroke" d="M 0.084767 23.0972C -0.187378 23.0504 -0.445946 23.2331 -0.49276 23.5052C -0.539574 23.7774 -0.356907 24.0359 -0.0847621 24.0828L 0.084767 23.0972ZM 1.92 23.75L 1.92204 24.25L 1.92363 24.25L 1.92 23.75ZM 10.1005 20.4101L 10.4478 20.7698L 10.1005 20.4101ZM 13.7231 12.3509L 13.2236 12.3299L 13.7231 12.3509ZM 10.7908 4.01571L 10.4144 4.3449L 10.7908 4.01571ZM 2.96564 -0.497912C 2.69065 -0.523121 2.4473 -0.320633 2.42209 -0.0456436C 2.39688 0.229346 2.59937 0.472704 2.87436 0.497912L 2.96564 -0.497912ZM 0.163446 24.1227C 0.436545 24.1636 0.69108 23.9753 0.731965 23.7022C 0.77285 23.4291 0.584603 23.1746 0.311504 23.1337L 0.163446 24.1227ZM 1.68832 23.2484C 1.41222 23.2436 1.18444 23.4634 1.17956 23.7395C 1.17468 24.0156 1.39454 24.2434 1.67064 24.2483L 1.68832 23.2484ZM 2.51136 24.2318C 2.78709 24.2167 2.99839 23.981 2.98331 23.7052C 2.96823 23.4295 2.73247 23.2182 2.45674 23.2333L 2.51136 24.2318ZM 5.63751 22.597C 5.37719 22.6891 5.24086 22.9749 5.33301 23.2352C 5.42515 23.4955 5.71087 23.6318 5.97119 23.5397L 5.63751 22.597ZM 7.05968 23.0953C 7.3101 22.9789 7.41876 22.6815 7.30238 22.4311C 7.18601 22.1807 6.88866 22.072 6.63824 22.1884L 7.05968 23.0953ZM 9.35545 20.4167C 9.14795 20.5989 9.12745 20.9148 9.30965 21.1223C 9.49186 21.3298 9.80778 21.3503 10.0153 21.1681L 9.35545 20.4167ZM 10.861 20.3514C 11.0503 20.1504 11.0408 19.8339 10.8398 19.6446C 10.6388 19.4553 10.3223 19.4648 10.133 19.6658L 10.861 20.3514ZM 11.9982 17.0119C 11.8732 17.2581 11.9714 17.5591 12.2177 17.6841C 12.4639 17.8091 12.7648 17.7109 12.8899 17.4647L 11.9982 17.0119ZM 13.3719 16.3923C 13.473 16.1354 13.3467 15.8451 13.0898 15.7439C 12.8328 15.6428 12.5425 15.7691 12.4414 16.026L 13.3719 16.3923ZM 13.1881 12.8693C 13.1634 13.1444 13.3663 13.3874 13.6414 13.412C 13.9164 13.4367 14.1594 13.2337 14.1841 12.9587L 13.1881 12.8693ZM 14.2335 11.784C 14.232 11.5079 14.007 11.2852 13.7309 11.2867C 13.4547 11.2882 13.2321 11.5132 13.2335 11.7893L 14.2335 11.784ZM 12.7549 8.58108C 12.8341 8.84562 13.1127 8.99588 13.3773 8.91668C 13.6418 8.83749 13.7921 8.55883 13.7129 8.29429L 12.7549 8.58108ZM 13.3227 7.18521C 13.2188 6.92936 12.9272 6.80616 12.6713 6.91005C 12.4154 7.01393 12.2923 7.30556 12.3961 7.56142L 13.3227 7.18521ZM 10.7606 4.76014C 10.9324 4.97638 11.2469 5.01243 11.4631 4.84068C 11.6793 4.66893 11.7154 4.3544 11.5436 4.13817L 10.7606 4.76014ZM 10.7696 3.25322C 10.5781 3.05422 10.2616 3.04809 10.0626 3.23954C 9.86361 3.43099 9.85748 3.74751 10.0489 3.94652L 10.7696 3.25322ZM 7.49027 1.95268C 7.73002 2.08969 8.03545 2.00641 8.17247 1.76666C 8.30948 1.52691 8.2262 1.22147 7.98645 1.08446L 7.49027 1.95268ZM 6.93917 0.550131C 6.68752 0.43643 6.39135 0.548259 6.27765 0.799907C 6.16395 1.05156 6.27578 1.34773 6.52743 1.46143L 6.93917 0.550131ZM 3.41141 0.560005C 3.6849 0.598213 3.93757 0.407482 3.97578 0.133996C 4.01399 -0.139491 3.82326 -0.392169 3.54977 -0.430377L 3.41141 0.560005ZM -0.0847621 24.0828C -0.00215591 24.097 0.0805852 24.1103 0.163446 24.1227L 0.311504 23.1337C 0.235811 23.1224 0.160227 23.1102 0.084767 23.0972L -0.0847621 24.0828ZM 1.67064 24.2483C 1.75441 24.2498 1.83822 24.2503 1.92204 24.25L 1.91797 23.25C 1.8414 23.2503 1.76484 23.2498 1.68832 23.2484L 1.67064 24.2483ZM 1.92363 24.25C 2.12008 24.2486 2.31605 24.2425 2.51136 24.2318L 2.45674 23.2333C 2.27717 23.2431 2.09701 23.2487 1.91637 23.25L 1.92363 24.25ZM 5.97119 23.5397C 6.34084 23.4088 6.70408 23.2605 7.05968 23.0953L 6.63824 22.1884C 6.31131 22.3403 5.97735 22.4767 5.63751 22.597L 5.97119 23.5397ZM 10.0153 21.1681C 10.1623 21.0391 10.3065 20.9063 10.4478 20.7698L 9.75312 20.0505C 9.62318 20.176 9.49058 20.2981 9.35545 20.4167L 10.0153 21.1681ZM 10.4478 20.7698C 10.5891 20.6333 10.7269 20.4938 10.861 20.3514L 10.133 19.6658C 10.0097 19.7967 9.88305 19.925 9.75312 20.0505L 10.4478 20.7698ZM 12.8899 17.4647C 13.0674 17.1151 13.2283 16.7572 13.3719 16.3923L 12.4414 16.026C 12.3093 16.3615 12.1614 16.6905 11.9982 17.0119L 12.8899 17.4647ZM 14.1841 12.9587C 14.2015 12.7639 14.2144 12.5682 14.2227 12.372L 13.2236 12.3299C 13.216 12.5104 13.2041 12.6902 13.1881 12.8693L 14.1841 12.9587ZM 14.2227 12.372C 14.231 12.1757 14.2346 11.9796 14.2335 11.784L 13.2335 11.7893C 13.2345 11.9692 13.2312 12.1494 13.2236 12.3299L 14.2227 12.372ZM 13.7129 8.29429C 13.6004 7.91864 13.4702 7.54853 13.3227 7.18521L 12.3961 7.56142C 12.5318 7.89544 12.6515 8.23572 12.7549 8.58108L 13.7129 8.29429ZM 11.5436 4.13817C 11.422 3.985 11.2964 3.8344 11.1671 3.68653L 10.4144 4.3449C 10.5333 4.48086 10.6487 4.61932 10.7606 4.76014L 11.5436 4.13817ZM 11.1671 3.68653C 11.0378 3.53865 10.9052 3.39419 10.7696 3.25322L 10.0489 3.94652C 10.1736 4.07612 10.2955 4.20893 10.4144 4.3449L 11.1671 3.68653ZM 7.98645 1.08446C 7.646 0.889897 7.29651 0.711584 6.93917 0.550131L 6.52743 1.46143C 6.85595 1.60987 7.17727 1.7738 7.49027 1.95268L 7.98645 1.08446ZM 3.54977 -0.430377C 3.35604 -0.457442 3.16129 -0.479978 2.96564 -0.497912L 2.87436 0.497912C 3.05424 0.514402 3.2333 0.535122 3.41141 0.560005L 3.54977 -0.430377Z"/>
</defs>
</svg>