<svg width="76" height="65" viewBox="0 0 76 65" version="1.1" xmlns="http://www.w3.org/2000/svg" xmlns:xlink="http://www.w3.org/1999/xlink">
<title>Icon_library_Network Security</title>
<desc>Created using Figma</desc>
<g id="Canvas" transform="translate(1088 -4510)">
<g id="Icon_library_Network Security">
<g id="Vector">
<use xlink:href="#path0_stroke" transform="translate(-1062.58 4530.9)" fill="#2DABE2"/>
</g>
<g id="Vector">
<use xlink:href="#path1_stroke" transform="translate(-1034.32 4511)" fill="#2DABE2"/>
</g>
<g id="Vector">
<use xlink:href="#path2_stroke" transform="translate(-1024.3 4536.98)" fill="#2DABE2"/>
</g>
<g id="Vector">
<use xlink:href="#path3_stroke" transform="translate(-1034.32 4562.96)" fill="#2DABE2"/>
</g>
<g id="Vector">
<use xlink:href="#path4_stroke" transform="translate(-1041.67 4552.77)" fill="#2DABE2"/>
</g>
<g id="Vector">
<use xlink:href="#path5_stroke" transform="translate(-1039.49 4555.21)" fill="#2DABE2"/>
</g>
<g id="Vector">
<use xlink:href="#path6_stroke" transform="translate(-1032.09 4563.45)" fill="#2DABE2"/>
</g>
<g id="Vector">
<use xlink:href="#path7_stroke" transform="translate(-1037.5 4543.12)" fill="#2DABE2"/>
</g>
<g id="Vector">
<use xlink:href="#path8_stroke" transform="translate(-1033.67 4543.12)" fill="#2DABE2"/>
</g>
<g id="Vector">
<use xlink:href="#path9_stroke" transform="translate(-1024.8 4543.12)" fill="#2DABE2"/>
</g>
<g id="Vector">
<use xlink:href="#path10_stroke" transform="translate(-1033.11 4520.3)" fill="#2DABE2"/>
</g>
<g id="Vector">
<use xlink:href="#path11_stroke" transform="translate(-1041.41 4523.14)" fill="#2DABE2"/>
</g>
<g id="Vector">
<use xlink:href="#path12_stroke" transform="translate(-1042.64 4532.92)" fill="#2DABE2"/>
</g>
<g id="Vector">
<use xlink:href="#path13_stroke" transform="translate(-1076.99 4511)" fill="#2DABE2"/>
</g>
<g id="Vector">
<use xlink:href="#path14_stroke" transform="translate(-1087 4536.98)" fill="#2DABE2"/>
</g>
<g id="Vector">
<use xlink:href="#path15_stroke" transform="translate(-1076.99 4562.96)" fill="#2DABE2"/>
</g>
<g id="Vector">
<use xlink:href="#path16_stroke" transform="translate(-1058.93 4552.77)" fill="#2DABE2"/>
</g>
<g id="Vector">
<use xlink:href="#path17_stroke" transform="translate(-1067.25 4555.21)" fill="#2DABE2"/>
</g>
<g id="Vector">
<use xlink:href="#path18_stroke" transform="translate(-1068.51 4563.45)" fill="#2DABE2"/>
</g>
<g id="Vector">
<use xlink:href="#path19_stroke" transform="translate(-1063.27 4543.12)" fill="#2DABE2"/>
</g>
<g id="Vector">
<use xlink:href="#path20_stroke" transform="translate(-1073.8 4543.12)" fill="#2DABE2"/>
</g>
<g id="Vector">
<use xlink:href="#path21_stroke" transform="translate(-1075.97 4543.12)" fill="#2DABE2"/>
</g>
<g id="Vector">
<use xlink:href="#path22_stroke" transform="translate(-1067.46 4520.3)" fill="#2DABE2"/>
</g>
<g id="Vector">
<use xlink:href="#path23_stroke" transform="translate(-1065.31 4523.14)" fill="#2DABE2"/>
</g>
<g id="Vector">
<use xlink:href="#path24_stroke" transform="translate(-1057.93 4532.92)" fill="#2DABE2"/>
</g>
</g>
</g>
<defs>
<path id="path0_stroke" d="M 24.08 12.54C 24.08 18.9134 18.9134 24.08 12.54 24.08L 12.54 26.08C 20.0179 26.08 26.08 20.0179 26.08 12.54L 24.08 12.54ZM 12.54 24.08C 6.16663 24.08 1 18.9134 1 12.54L -1 12.54C -1 20.0179 5.06206 26.08 12.54 26.08L 12.54 24.08ZM 1 12.54C 1 6.16663 6.16663 1 12.54 1L 12.54 -1C 5.06206 -1 -1 5.06206 -1 12.54L 1 12.54ZM 12.54 1C 18.9134 1 24.08 6.16663 24.08 12.54L 26.08 12.54C 26.08 5.06206 20.0179 -1 12.54 -1L 12.54 1Z"/>
<path id="path1_stroke" d="M 10.04 5.52C 10.04 8.01633 8.01633 10.04 5.52 10.04L 5.52 12.04C 9.1209 12.04 12.04 9.1209 12.04 5.52L 10.04 5.52ZM 5.52 10.04C 3.02367 10.04 1 8.01633 1 5.52L -1 5.52C -1 9.1209 1.9191 12.04 5.52 12.04L 5.52 10.04ZM 1 5.52C 1 3.02367 3.02367 1 5.52 1L 5.52 -1C 1.9191 -1 -1 1.9191 -1 5.52L 1 5.52ZM 5.52 1C 8.01633 1 10.04 3.02367 10.04 5.52L 12.04 5.52C 12.04 1.9191 9.1209 -1 5.52 -1L 5.52 1Z"/>
<path id="path2_stroke" d="M 10.04 5.52C 10.04 8.01633 8.01633 10.04 5.52 10.04L 5.52 12.04C 9.1209 12.04 12.04 9.1209 12.04 5.52L 10.04 5.52ZM 5.52 10.04C 3.02367 10.04 1 8.01633 1 5.52L -0.999999 5.52C -0.999999 9.1209 1.9191 12.04 5.52 12.04L 5.52 10.04ZM 1 5.52C 1 3.02367 3.02367 1 5.52 1L 5.52 -1C 1.9191 -1 -0.999999 1.9191 -0.999999 5.52L 1 5.52ZM 5.52 1C 8.01633 1 10.04 3.02367 10.04 5.52L 12.04 5.52C 12.04 1.9191 9.1209 -1 5.52 -1L 5.52 1Z"/>
<path id="path3_stroke" d="M 10.04 5.52C 10.04 8.01633 8.01633 10.04 5.52 10.04L 5.52 12.04C 9.1209 12.04 12.04 9.1209 12.04 5.52L 10.04 5.52ZM 5.52 10.04C 3.02367 10.04 1 8.01633 1 5.52L -1 5.52C -1 9.1209 1.9191 12.04 5.52 12.04L 5.52 10.04ZM 1 5.52C 1 3.02367 3.02367 0.999999 5.52 0.999999L 5.52 -1C 1.9191 -1 -1 1.9191 -1 5.52L 1 5.52ZM 5.52 0.999999C 8.01633 0.999999 10.04 3.02367 10.04 5.52L 12.04 5.52C 12.04 1.9191 9.1209 -1 5.52 -1L 5.52 0.999999Z"/>
<path id="path4_stroke" d="M 0.37752 -0.327841C 0.196458 -0.536339 -0.119342 -0.558579 -0.32784 -0.377518C -0.536337 -0.196456 -0.558578 0.119345 -0.377516 0.327842L 0.37752 -0.327841ZM -0.0475182 0.707843C 0.133544 0.916341 0.449344 0.938581 0.657842 0.75752C 0.866339 0.576458 0.88858 0.260657 0.707518 0.0521598L -0.0475182 0.707843ZM -0.377516 0.327842L -0.0475182 0.707843L 0.707518 0.0521598L 0.37752 -0.327841L -0.377516 0.327842Z"/>
<path id="path5_stroke" d="M 0.372133 -0.333941C 0.187702 -0.539465 -0.128418 -0.556565 -0.333942 -0.372135C -0.539466 -0.187705 -0.556566 0.128415 -0.372136 0.333939L 0.372133 -0.333941ZM 6.09787 7.54394C 6.2823 7.74946 6.59842 7.76656 6.80394 7.58213C 7.00946 7.3977 7.02656 7.08158 6.84213 6.87606L 6.09787 7.54394ZM -0.103283 0.633542C 0.081147 0.839066 0.397267 0.856166 0.602791 0.671736C 0.808315 0.487306 0.825415 0.171185 0.640985 -0.0343387L -0.103283 0.633542ZM 2.25995 1.76979C 2.07552 1.56427 1.7594 1.54717 1.55387 1.7316C 1.34835 1.91603 1.33125 2.23215 1.51568 2.43767L 2.25995 1.76979ZM 2.05338 3.03687C 2.23781 3.2424 2.55393 3.2595 2.75946 3.07507C 2.96498 2.89064 2.98208 2.57452 2.79765 2.36899L 2.05338 3.03687ZM 4.41661 4.17312C 4.23218 3.9676 3.91606 3.9505 3.71054 4.13493C 3.50502 4.31936 3.48792 4.63548 3.67235 4.841L 4.41661 4.17312ZM 4.21005 5.44021C 4.39448 5.64573 4.7106 5.66283 4.91613 5.4784C 5.12165 5.29397 5.13875 4.97785 4.95432 4.77233L 4.21005 5.44021ZM 6.57328 6.57646C 6.38885 6.37093 6.07273 6.35383 5.86721 6.53826C 5.66168 6.72269 5.64458 7.03881 5.82901 7.24434L 6.57328 6.57646ZM -0.372136 0.333939L -0.103283 0.633542L 0.640985 -0.0343387L 0.372133 -0.333941L -0.372136 0.333939ZM 1.51568 2.43767L 2.05338 3.03687L 2.79765 2.36899L 2.25995 1.76979L 1.51568 2.43767ZM 3.67235 4.841L 4.21005 5.44021L 4.95432 4.77233L 4.41661 4.17312L 3.67235 4.841ZM 5.82901 7.24434L 6.09787 7.54394L 6.84213 6.87606L 6.57328 6.57646L 5.82901 7.24434Z"/>
<path id="path6_stroke" d="M 0.377516 -0.327843C 0.196453 -0.536339 -0.119348 -0.558579 -0.327844 -0.377515C -0.53634 -0.196452 -0.558579 0.119348 -0.377516 0.327845L 0.377516 -0.327843ZM -0.0475144 0.707846C 0.133549 0.916342 0.449349 0.938581 0.657846 0.757518C 0.866342 0.576455 0.888581 0.260654 0.707518 0.052158L -0.0475144 0.707846ZM -0.377516 0.327845L -0.0475144 0.707846L 0.707518 0.052158L 0.377516 -0.327843L -0.377516 0.327845Z"/>
<path id="path7_stroke" d="M 0 -0.500001C -0.276142 -0.500001 -0.5 -0.276143 -0.5 -1.06812e-06C -0.5 0.276141 -0.276142 0.499999 0 0.499999L 0 -0.500001ZM 0.5 0.499999C 0.776142 0.499999 1 0.276141 1 -1.06812e-06C 1 -0.276143 0.776142 -0.500001 0.5 -0.500001L 0.5 0.499999ZM 0 0.499999L 0.5 0.499999L 0.5 -0.500001L 0 -0.500001L 0 0.499999Z"/>
<path id="path8_stroke" d="M 1.83105e-06 -0.500001C -0.276141 -0.500001 -0.499998 -0.276143 -0.499998 -1.06812e-06C -0.499998 0.276141 -0.276141 0.499999 1.83105e-06 0.499999L 1.83105e-06 -0.500001ZM 7.21 0.499999C 7.48614 0.499999 7.71 0.276141 7.71 -1.06812e-06C 7.71 -0.276143 7.48614 -0.500001 7.21 -0.500001L 7.21 0.499999ZM 0.450627 0.499999C 0.726769 0.499999 0.950627 0.276141 0.950627 -1.06812e-06C 0.950627 -0.276143 0.726769 -0.500001 0.450627 -0.500001L 0.450627 0.499999ZM 3.15438 -0.500001C 2.87823 -0.500001 2.65438 -0.276143 2.65438 -1.06812e-06C 2.65438 0.276141 2.87823 0.499999 3.15438 0.499999L 3.15438 -0.500001ZM 4.05563 0.499999C 4.33177 0.499999 4.55563 0.276141 4.55563 -1.06812e-06C 4.55563 -0.276143 4.33177 -0.500001 4.05563 -0.500001L 4.05563 0.499999ZM 6.75938 -0.500001C 6.48323 -0.500001 6.25938 -0.276143 6.25938 -1.06812e-06C 6.25938 0.276141 6.48323 0.499999 6.75938 0.499999L 6.75938 -0.500001ZM 1.83105e-06 0.499999L 0.450627 0.499999L 0.450627 -0.500001L 1.83105e-06 -0.500001L 1.83105e-06 0.499999ZM 3.15438 0.499999L 4.05563 0.499999L 4.05563 -0.500001L 3.15438 -0.500001L 3.15438 0.499999ZM 6.75938 0.499999L 7.21 0.499999L 7.21 -0.500001L 6.75938 -0.500001L 6.75938 0.499999Z"/>
<path id="path9_stroke" d="M 7.62939e-07 -0.500001C -0.276142 -0.500001 -0.499999 -0.276143 -0.499999 -1.06812e-06C -0.499999 0.276141 -0.276142 0.499999 7.62939e-07 0.499999L 7.62939e-07 -0.500001ZM 0.500001 0.499999C 0.776143 0.499999 1 0.276141 1 -1.06812e-06C 1 -0.276143 0.776143 -0.500001 0.500001 -0.500001L 0.500001 0.499999ZM 7.62939e-07 0.499999L 0.500001 0.499999L 0.500001 -0.500001L 7.62939e-07 -0.500001L 7.62939e-07 0.499999Z"/>
<path id="path10_stroke" d="M 0.699999 0.3C 0.865684 0.0790859 0.820912 -0.234315 0.599998 -0.4C 0.379084 -0.565685 0.0656837 -0.520914 -0.100002 -0.3L 0.699999 0.3ZM -0.400001 0.1C -0.565686 0.320914 -0.520914 0.634315 -0.3 0.8C -0.0790863 0.965685 0.234314 0.920914 0.4 0.7L -0.400001 0.1ZM -0.100002 -0.3L -0.400001 0.1L 0.4 0.7L 0.699999 0.3L -0.100002 -0.3Z"/>
<path id="path11_stroke" d="M 6.84916 0.30112C 7.01546 0.0806707 6.97157 -0.232854 6.75112 -0.399158C 6.53067 -0.565461 6.21715 -0.521568 6.05084 -0.301119L 6.84916 0.30112ZM -0.399158 8.24888C -0.565462 8.46933 -0.521568 8.78285 -0.301119 8.94916C -0.0806702 9.11546 0.232855 9.07157 0.399158 8.85112L -0.399158 8.24888ZM 0.667908 8.49487C 0.834212 8.27442 0.790318 7.9609 0.569869 7.79459C 0.349421 7.62829 0.0358957 7.67218 -0.130408 7.89263L 0.667908 8.49487ZM 1.48209 5.75513C 1.31579 5.97558 1.35968 6.2891 1.58013 6.45541C 1.80058 6.62171 2.1141 6.57782 2.28041 6.35737L 1.48209 5.75513ZM 2.81791 5.64487C 2.98421 5.42442 2.94032 5.1109 2.71987 4.94459C 2.49942 4.77829 2.1859 4.82218 2.01959 5.04263L 2.81791 5.64487ZM 3.63209 2.90513C 3.46579 3.12558 3.50968 3.4391 3.73013 3.60541C 3.95058 3.77171 4.26411 3.72782 4.43041 3.50737L 3.63209 2.90513ZM 4.96791 2.79487C 5.13421 2.57442 5.09032 2.2609 4.86987 2.09459C 4.64942 1.92829 4.3359 1.97218 4.16959 2.19263L 4.96791 2.79487ZM 5.78209 0.055131C 5.61579 0.27558 5.65968 0.589105 5.88013 0.755408C 6.10058 0.921712 6.41411 0.877819 6.58041 0.65737L 5.78209 0.055131ZM 0.399158 8.85112L 0.667908 8.49487L -0.130408 7.89263L -0.399158 8.24888L 0.399158 8.85112ZM 2.28041 6.35737L 2.81791 5.64487L 2.01959 5.04263L 1.48209 5.75513L 2.28041 6.35737ZM 4.43041 3.50737L 4.96791 2.79487L 4.16959 2.19263L 3.63209 2.90513L 4.43041 3.50737ZM 6.58041 0.65737L 6.84916 0.30112L 6.05084 -0.301119L 5.78209 0.055131L 6.58041 0.65737Z"/>
<path id="path12_stroke" d="M 0.696312 0.304855C 0.864679 0.0859781 0.823732 -0.227945 0.604855 -0.396312C 0.385978 -0.564679 0.0720545 -0.523732 -0.0963123 -0.304855L 0.696312 0.304855ZM -0.396312 0.0851443C -0.564678 0.304021 -0.523732 0.617945 -0.304855 0.786312C -0.0859774 0.954678 0.227946 0.913732 0.396313 0.694855L -0.396312 0.0851443ZM -0.0963123 -0.304855L -0.396312 0.0851443L 0.396313 0.694855L 0.696312 0.304855L -0.0963123 -0.304855Z"/>
<path id="path13_stroke" d="M 10.04 5.52C 10.04 8.01633 8.01633 10.04 5.52 10.04L 5.52 12.04C 9.1209 12.04 12.04 9.1209 12.04 5.52L 10.04 5.52ZM 5.52 10.04C 3.02367 10.04 1 8.01633 1 5.52L -1 5.52C -1 9.1209 1.9191 12.04 5.52 12.04L 5.52 10.04ZM 1 5.52C 1 3.02367 3.02367 1 5.52 1L 5.52 -1C 1.9191 -1 -1 1.9191 -1 5.52L 1 5.52ZM 5.52 1C 8.01633 1 10.04 3.02367 10.04 5.52L 12.04 5.52C 12.04 1.9191 9.1209 -1 5.52 -1L 5.52 1Z"/>
<path id="path14_stroke" d="M 10.04 5.52C 10.04 8.01633 8.01633 10.04 5.52 10.04L 5.52 12.04C 9.1209 12.04 12.04 9.1209 12.04 5.52L 10.04 5.52ZM 5.52 10.04C 3.02367 10.04 1 8.01633 1 5.52L -1 5.52C -1 9.1209 1.9191 12.04 5.52 12.04L 5.52 10.04ZM 1 5.52C 1 3.02367 3.02367 1 5.52 1L 5.52 -1C 1.9191 -1 -1 1.9191 -1 5.52L 1 5.52ZM 5.52 1C 8.01633 1 10.04 3.02367 10.04 5.52L 12.04 5.52C 12.04 1.9191 9.1209 -1 5.52 -1L 5.52 1Z"/>
<path id="path15_stroke" d="M 10.04 5.52C 10.04 8.01633 8.01633 10.04 5.52 10.04L 5.52 12.04C 9.1209 12.04 12.04 9.1209 12.04 5.52L 10.04 5.52ZM 5.52 10.04C 3.02367 10.04 1 8.01633 1 5.52L -1 5.52C -1 9.1209 1.9191 12.04 5.52 12.04L 5.52 10.04ZM 1 5.52C 1 3.02367 3.02367 0.999999 5.52 0.999999L 5.52 -1C 1.9191 -1 -1 1.9191 -1 5.52L 1 5.52ZM 5.52 0.999999C 8.01633 0.999999 10.04 3.02367 10.04 5.52L 12.04 5.52C 12.04 1.9191 9.1209 -1 5.52 -1L 5.52 0.999999Z"/>
<path id="path16_stroke" d="M 0.707517 0.327843C 0.888579 0.119346 0.866339 -0.196454 0.657842 -0.377517C 0.449345 -0.558579 0.133545 -0.536339 -0.0475174 -0.327842L 0.707517 0.327843ZM -0.377517 0.0521587C -0.55858 0.260656 -0.53634 0.576456 -0.327843 0.757519C -0.119346 0.938581 0.196454 0.916341 0.377517 0.707844L -0.377517 0.0521587ZM -0.0475174 -0.327842L -0.377517 0.0521587L 0.377517 0.707844L 0.707517 0.327843L -0.0475174 -0.327842Z"/>
<path id="path17_stroke" d="M 6.84213 0.333939C 7.02656 0.128415 7.00946 -0.187705 6.80394 -0.372135C 6.59842 -0.556565 6.2823 -0.539465 6.09787 -0.333941L 6.84213 0.333939ZM -0.372134 6.87606C -0.556564 7.08158 -0.539464 7.3977 -0.33394 7.58213C -0.128416 7.76656 0.187704 7.74946 0.372134 7.54394L -0.372134 6.87606ZM 0.640987 7.24434C 0.825417 7.03881 0.808317 6.72269 0.602793 6.53826C 0.397269 6.35383 0.0811485 6.37093 -0.103282 6.57646L 0.640987 7.24434ZM 1.51568 4.77233C 1.33125 4.97785 1.34835 5.29397 1.55387 5.4784C 1.7594 5.66283 2.07552 5.64573 2.25995 5.44021L 1.51568 4.77233ZM 2.79765 4.841C 2.98208 4.63548 2.96498 4.31936 2.75946 4.13493C 2.55394 3.9505 2.23781 3.9676 2.05338 4.17312L 2.79765 4.841ZM 3.67235 2.36899C 3.48792 2.57452 3.50502 2.89064 3.71054 3.07507C 3.91606 3.2595 4.23218 3.2424 4.41661 3.03687L 3.67235 2.36899ZM 4.95432 2.43767C 5.13875 2.23215 5.12165 1.91603 4.91613 1.7316C 4.7106 1.54717 4.39448 1.56427 4.21005 1.76979L 4.95432 2.43767ZM 5.82901 -0.0343386C 5.64458 0.171186 5.66168 0.487306 5.86721 0.671736C 6.07273 0.856166 6.38885 0.839066 6.57328 0.633542L 5.82901 -0.0343386ZM 0.372134 7.54394L 0.640987 7.24434L -0.103282 6.57646L -0.372134 6.87606L 0.372134 7.54394ZM 2.25995 5.44021L 2.79765 4.841L 2.05338 4.17312L 1.51568 4.77233L 2.25995 5.44021ZM 4.41661 3.03687L 4.95432 2.43767L 4.21005 1.76979L 3.67235 2.36899L 4.41661 3.03687ZM 6.57328 0.633542L 6.84213 0.333939L 6.09787 -0.333941L 5.82901 -0.0343386L 6.57328 0.633542Z"/>
<path id="path18_stroke" d="M 0.712621 0.333398C 0.896751 0.127605 0.87919 -0.18849 0.673397 -0.37262C 0.467604 -0.55675 0.151509 -0.539189 -0.0326211 -0.333396L 0.712621 0.333398ZM -0.372621 0.0466049C -0.556751 0.252398 -0.53919 0.568493 -0.333397 0.752623C -0.127604 0.936753 0.188491 0.919192 0.372621 0.713399L -0.372621 0.0466049ZM -0.0326211 -0.333396L -0.372621 0.0466049L 0.372621 0.713399L 0.712621 0.333398L -0.0326211 -0.333396Z"/>
<path id="path19_stroke" d="M 0.5 0.499999C 0.776142 0.499999 1 0.276141 1 -1.06812e-06C 1 -0.276143 0.776142 -0.500001 0.5 -0.500001L 0.5 0.499999ZM -4.57764e-07 -0.500001C -0.276143 -0.500001 -0.5 -0.276143 -0.5 -1.06812e-06C -0.5 0.276141 -0.276143 0.499999 -4.57764e-07 0.499999L -4.57764e-07 -0.500001ZM 0.5 -0.500001L -4.57764e-07 -0.500001L -4.57764e-07 0.499999L 0.5 0.499999L 0.5 -0.500001Z"/>
<path id="path20_stroke" d="M 7.21 0.499999C 7.48614 0.499999 7.71 0.276141 7.71 -1.06812e-06C 7.71 -0.276143 7.48614 -0.500001 7.21 -0.500001L 7.21 0.499999ZM -1.90735e-07 -0.500001C -0.276143 -0.500001 -0.5 -0.276143 -0.5 -1.06812e-06C -0.5 0.276141 -0.276143 0.499999 -1.90735e-07 0.499999L -1.90735e-07 -0.500001ZM 0.450625 0.499999C 0.726767 0.499999 0.950625 0.276141 0.950625 -1.06812e-06C 0.950625 -0.276143 0.726767 -0.500001 0.450625 -0.500001L 0.450625 0.499999ZM 3.15437 -0.500001C 2.87823 -0.500001 2.65437 -0.276143 2.65437 -1.06812e-06C 2.65437 0.276141 2.87823 0.499999 3.15437 0.499999L 3.15437 -0.500001ZM 4.05562 0.499999C 4.33177 0.499999 4.55562 0.276141 4.55562 -1.06812e-06C 4.55562 -0.276143 4.33177 -0.500001 4.05562 -0.500001L 4.05562 0.499999ZM 6.75937 -0.500001C 6.48323 -0.500001 6.25937 -0.276143 6.25937 -1.06812e-06C 6.25937 0.276141 6.48323 0.499999 6.75937 0.499999L 6.75937 -0.500001ZM -1.90735e-07 0.499999L 0.450625 0.499999L 0.450625 -0.500001L -1.90735e-07 -0.500001L -1.90735e-07 0.499999ZM 3.15437 0.499999L 4.05562 0.499999L 4.05562 -0.500001L 3.15437 -0.500001L 3.15437 0.499999ZM 6.75937 0.499999L 7.21 0.499999L 7.21 -0.500001L 6.75937 -0.500001L 6.75937 0.499999Z"/>
<path id="path21_stroke" d="M 0.5 0.499999C 0.776142 0.499999 1 0.276141 1 -1.06812e-06C 1 -0.276143 0.776142 -0.500001 0.5 -0.500001L 0.5 0.499999ZM -2.67029e-07 -0.500001C -0.276143 -0.500001 -0.5 -0.276143 -0.5 -1.06812e-06C -0.5 0.276141 -0.276143 0.499999 -2.67029e-07 0.499999L -2.67029e-07 -0.500001ZM 0.5 -0.500001L -2.67029e-07 -0.500001L -2.67029e-07 0.499999L 0.5 0.499999L 0.5 -0.500001Z"/>
<path id="path22_stroke" d="M 0.400001 -0.3C 0.234316 -0.520914 -0.0790848 -0.565685 -0.299999 -0.4C -0.520913 -0.234315 -0.565685 0.0790859 -0.399999 0.3L 0.400001 -0.3ZM -0.1 0.7C 0.0656852 0.920914 0.379086 0.965685 0.6 0.8C 0.820914 0.634315 0.865686 0.320914 0.7 0.1L -0.1 0.7ZM -0.399999 0.3L -0.1 0.7L 0.7 0.1L 0.400001 -0.3L -0.399999 0.3Z"/>
<path id="path23_stroke" d="M 0.398934 -0.301416C 0.232466 -0.521741 -0.081091 -0.565401 -0.301416 -0.398933C -0.521741 -0.232466 -0.565401 0.0810919 -0.398933 0.301417L 0.398934 -0.301416ZM 6.06107 8.85142C 6.22753 9.07174 6.54109 9.1154 6.76142 8.94893C 6.98174 8.78247 7.0254 8.46891 6.85893 8.24858L 6.06107 8.85142ZM -0.129767 0.657667C 0.0367012 0.877992 0.350259 0.921652 0.570584 0.755184C 0.790909 0.588716 0.834569 0.275159 0.668101 0.0548338L -0.129767 0.657667ZM 2.2831 2.19233C 2.11663 1.97201 1.80308 1.92835 1.58275 2.09482C 1.36243 2.26128 1.31877 2.57484 1.48523 2.79517L 2.2831 2.19233ZM 2.02357 3.50767C 2.19003 3.72799 2.50359 3.77165 2.72392 3.60518C 2.94424 3.43872 2.9879 3.12516 2.82143 2.90483L 2.02357 3.50767ZM 4.43643 5.04233C 4.26997 4.82201 3.95641 4.77835 3.73608 4.94482C 3.51576 5.11128 3.4721 5.42484 3.63857 5.64517L 4.43643 5.04233ZM 4.1769 6.35767C 4.34337 6.57799 4.65692 6.62165 4.87725 6.45518C 5.09757 6.28872 5.14123 5.97516 4.97477 5.75483L 4.1769 6.35767ZM 6.58977 7.89233C 6.4233 7.67201 6.10974 7.62835 5.88942 7.79482C 5.66909 7.96128 5.62543 8.27484 5.7919 8.49517L 6.58977 7.89233ZM -0.398933 0.301417L -0.129767 0.657667L 0.668101 0.0548338L 0.398934 -0.301416L -0.398933 0.301417ZM 1.48523 2.79517L 2.02357 3.50767L 2.82143 2.90483L 2.2831 2.19233L 1.48523 2.79517ZM 3.63857 5.64517L 4.1769 6.35767L 4.97477 5.75483L 4.43643 5.04233L 3.63857 5.64517ZM 5.7919 8.49517L 6.06107 8.85142L 6.85893 8.24858L 6.58977 7.89233L 5.7919 8.49517Z"/>
<path id="path24_stroke" d="M 0.396311 -0.304856C 0.227943 -0.523733 -0.0859801 -0.564679 -0.304857 -0.396311C -0.523733 -0.227944 -0.564679 0.0859799 -0.396312 0.304856L 0.396311 -0.304856ZM -0.0963104 0.694856C 0.0720572 0.913733 0.385981 0.954678 0.604857 0.786311C 0.823734 0.617943 0.86468 0.30402 0.696312 0.0851431L -0.0963104 0.694856ZM -0.396312 0.304856L -0.0963104 0.694856L 0.696312 0.0851431L 0.396311 -0.304856L -0.396312 0.304856Z"/>
</defs>
</svg>