<svg width="86" height="68" viewBox="0 0 86 68" fill="none" xmlns="http://www.w3.org/2000/svg">
<g clip-path="url(#clip0)">
<path d="M37.861 67.1221C32.1976 67.1221 26.7439 65.1294 22.4439 61.5635C20.4512 62.5074 18.2488 62.9269 16.0463 62.9269C7.13171 62.9269 0 55.6904 0 46.8806C0 38.0708 7.13171 30.8343 16.0463 30.8343C16.2561 30.8343 16.4659 30.8343 16.6756 30.8343C19.6122 25.4855 24.4366 21.605 30.2049 19.6123L30.8341 21.605C25.3805 23.3879 20.8707 27.2684 18.1439 32.4074L17.8293 33.1416L17.0951 33.0367C16.6756 33.0367 16.361 32.9318 15.9415 32.9318C8.28537 33.0367 2.09756 39.2245 2.09756 46.8806C2.09756 54.5367 8.28537 60.8294 16.0463 60.8294C18.1439 60.8294 20.2415 60.305 22.1293 59.3611L22.7585 59.0465L23.2829 59.466C27.2683 63.0318 32.5122 65.0245 37.861 65.0245C42.161 65.0245 46.2512 63.766 49.8171 61.4586L50.3415 61.144L50.8659 61.4586C53.4878 63.0318 56.5293 63.8708 59.5707 63.8708C63.5561 63.8708 67.4366 62.5074 70.478 59.8855L70.8976 59.466L71.4219 59.6757C72.4707 60.0952 73.5195 60.2001 74.4634 60.2001C79.6024 60.2001 83.7976 56.005 83.7976 50.866C83.7976 46.4611 80.6512 42.5806 76.3512 41.7416L76.7707 39.644C82.1195 40.6928 86 45.4123 86 50.7611C86 57.0538 80.861 62.1928 74.5683 62.1928C73.5195 62.1928 72.4707 61.983 71.4219 61.6684C68.0658 64.2904 63.8707 65.7586 59.6756 65.7586C56.4244 65.7586 53.278 64.9196 50.4463 63.3465C46.5658 65.8635 42.2658 67.1221 37.861 67.1221Z" fill="#FC8318"/>
<path d="M53.4877 11.6414C42.5803 11.6414 35.3438 8.5999 35.3438 5.76819C35.3438 2.93648 42.6852 -0.10498 53.4877 -0.10498C64.2901 -0.10498 71.6316 2.93648 71.6316 5.76819C71.6316 8.5999 64.395 11.6414 53.4877 11.6414ZM37.4413 5.87307C38.0706 7.02673 43.6291 9.64868 53.4877 9.64868C63.3462 9.64868 68.9047 7.02673 69.534 5.87307C68.9047 4.71941 63.3462 2.09746 53.4877 2.09746C43.6291 2.09746 38.0706 4.71941 37.4413 5.87307Z" fill="#FC8318"/>
<path d="M53.4877 22.7584C42.5803 22.7584 35.3438 19.717 35.3438 16.8853H37.4413C37.8608 17.8292 43.4194 20.6609 53.4877 20.6609C63.556 20.6609 69.2194 17.934 69.6389 16.8853L71.7364 16.9901C71.6316 19.717 64.395 22.7584 53.4877 22.7584Z" fill="#FC8318"/>
<path d="M53.4877 34.6096C42.2657 34.6096 35.3438 31.0437 35.3438 28.4218H37.4413C37.7559 29.1559 42.6852 32.512 53.4877 32.512C64.395 32.512 69.3242 29.1559 69.6389 28.3169L71.7364 28.4218C71.6316 31.0437 64.7096 34.6096 53.4877 34.6096Z" fill="#FC8318"/>
<path d="M53.4877 46.1465C42.5803 46.1465 35.3438 41.9513 35.3438 39.1196H37.4413C37.7559 40.1684 43.4194 44.0489 53.4877 44.0489C63.556 44.0489 69.3242 40.2733 69.6389 39.1196L71.7364 39.2245C71.6316 41.9513 64.395 46.1465 53.4877 46.1465Z" fill="#FC8318"/>
<path d="M37.3358 5.87305H35.2383V39.2243H37.3358V5.87305Z" fill="#FC8318"/>
<path d="M71.6308 5.87305H69.5332V39.2243H71.6308V5.87305Z" fill="#FC8318"/>
</g>
<defs>
<clipPath id="clip0">
<rect width="86" height="67.1219" fill="white"/>
</clipPath>
</defs>
</svg>
