<svg width="61" height="70" viewBox="0 0 61 70" fill="none" xmlns="http://www.w3.org/2000/svg">
<path d="M29.8512 41.3249C29.6372 41.3249 29.3162 41.2195 29.1022 41.0086C28.6743 40.5869 28.6743 39.9544 29.1022 39.5327L45.5787 22.349C46.0066 21.9273 46.6485 21.9273 47.0765 22.349C47.5044 22.7707 47.5044 23.4032 47.0765 23.8249L30.6001 41.0086C30.4931 41.2195 30.1721 41.3249 29.8512 41.3249Z" fill="#FC8318"/>
<path d="M30.0665 56.9276C29.7455 56.9276 29.3176 56.9276 28.9966 56.9276C28.6756 56.9276 28.4617 56.6113 28.4617 56.4004C28.4617 56.0842 28.6756 55.8733 28.9966 55.8733C29.3176 55.8733 29.6385 55.8733 29.9595 55.8733C30.2805 55.8733 30.4944 56.0842 30.4944 56.4004C30.6014 56.7167 30.3875 56.9276 30.0665 56.9276V56.4004V56.9276ZM33.1692 56.6113C32.9552 56.6113 32.7412 56.4004 32.6342 56.1896C32.5272 55.8733 32.7412 55.6625 33.0622 55.5571C33.3832 55.4517 33.7042 55.4517 34.0251 55.3462C34.3461 55.2408 34.56 55.4517 34.667 55.7679C34.774 56.0842 34.56 56.295 34.2391 56.4004C34.0251 56.4004 33.7041 56.5059 33.1692 56.6113C33.2761 56.6113 33.2761 56.6113 33.1692 56.6113ZM25.7869 56.4004H25.6799C25.3589 56.295 24.931 56.1896 24.61 56.0842C24.289 55.9788 24.182 55.6625 24.289 55.4517C24.396 55.1354 24.717 55.03 24.931 55.1354C25.2519 55.2408 25.5729 55.3462 25.8939 55.4517C26.2148 55.5571 26.3219 55.7679 26.3219 56.0842C26.3219 56.1896 26.1079 56.4004 25.7869 56.4004ZM37.2348 55.2408C37.0208 55.2408 36.8068 55.1354 36.8068 54.9245C36.6998 54.7137 36.8068 54.3974 37.0208 54.1866C37.3418 54.0812 37.6627 53.8703 37.8767 53.6595C38.0907 53.5541 38.4117 53.5541 38.6257 53.8703C38.7327 54.0812 38.7326 54.3974 38.4117 54.6083C38.0907 54.8191 37.7697 54.9245 37.4487 55.1354C37.4487 55.2408 37.3418 55.2408 37.2348 55.2408ZM21.9353 54.8191C21.8283 54.8191 21.7213 54.8191 21.6143 54.7137C21.2933 54.5029 20.9724 54.292 20.6514 54.1866C20.4374 53.9758 20.3304 53.6595 20.5444 53.4486C20.7584 53.2378 21.0794 53.1324 21.2933 53.3432C21.6143 53.5541 21.8283 53.6595 22.1492 53.8703C22.3632 53.9757 22.4702 54.292 22.3632 54.6083C22.2562 54.7137 22.0423 54.8191 21.9353 54.8191ZM40.7655 52.9215C40.6585 52.9215 40.4445 52.8161 40.3375 52.7107C40.1235 52.4998 40.1235 52.1836 40.3375 51.9727C40.5515 51.7619 40.8724 51.5511 41.0864 51.2348C41.3004 51.0239 41.6214 51.0239 41.8354 51.2348C42.0493 51.4456 42.0493 51.7619 41.8354 51.9727C41.6214 52.1836 41.3004 52.4998 40.9795 52.7107C40.9795 52.9215 40.8725 52.9215 40.7655 52.9215ZM18.5116 52.1836C18.4046 52.1836 18.1906 52.1836 18.0836 52.0782C17.8697 51.8673 17.5487 51.5511 17.3347 51.2348C17.1207 51.0239 17.1207 50.7077 17.3347 50.4968C17.5487 50.286 17.8697 50.286 18.0836 50.4968C18.2976 50.7077 18.5116 51.0239 18.8326 51.2348C19.0466 51.4456 19.0466 51.7619 18.8326 51.9727C18.8326 52.1836 18.6186 52.1836 18.5116 52.1836ZM43.5472 49.7589C43.4402 49.7589 43.3332 49.7589 43.2262 49.6535C43.0122 49.4426 42.9053 49.1264 43.1192 48.9155C43.3332 48.5992 43.4402 48.3884 43.6542 48.0721C43.7612 47.8613 44.0821 47.7559 44.4031 47.8613C44.617 47.9667 44.7241 48.283 44.6171 48.5992C44.4031 48.9155 44.1891 49.2318 44.0821 49.548C43.9751 49.6535 43.7611 49.7589 43.5472 49.7589ZM15.9438 48.9155C15.7299 48.9155 15.6229 48.8101 15.5159 48.7047C15.3019 48.3884 15.1949 48.0721 14.9809 47.7559C14.874 47.545 14.9809 47.2288 15.1949 47.0179C15.4089 46.9125 15.7299 47.0179 15.9438 47.2288C16.0508 47.545 16.2648 47.8613 16.4788 48.0721C16.5858 48.283 16.5858 48.5992 16.2648 48.8101C16.1578 48.9155 16.0508 48.9155 15.9438 48.9155ZM45.473 45.9637C45.366 45.9637 45.366 45.9637 45.259 45.9637C44.9381 45.8583 44.831 45.542 44.938 45.3312C45.045 45.0149 45.152 44.6986 45.259 44.3824C45.366 44.0661 45.58 43.9607 45.901 43.9607C46.2219 44.0661 46.3289 44.277 46.3289 44.5932C46.2219 44.9095 46.1149 45.3312 46.0079 45.6474C45.9009 45.8583 45.6869 45.9637 45.473 45.9637ZM14.339 45.0149C14.125 45.0149 13.911 44.9095 13.8041 44.5932C13.6971 44.277 13.5901 43.8553 13.5901 43.539C13.4831 43.2227 13.6971 43.0119 14.018 42.9065C14.339 42.8011 14.553 43.0119 14.66 43.3282C14.7669 43.6444 14.767 43.9607 14.874 44.277C14.9809 44.5932 14.767 44.8041 14.446 44.9095C14.339 45.0149 14.339 45.0149 14.339 45.0149ZM46.3289 41.8523C46.3289 41.8523 46.2219 41.8523 46.3289 41.8523C46.008 41.8523 45.794 41.536 45.794 41.3251C45.794 41.0089 45.794 40.6926 45.794 40.2709C45.794 39.9547 46.008 39.7438 46.3289 39.7438C46.6499 39.7438 46.8639 39.9547 46.8639 40.2709V40.3764C46.8639 40.6926 46.8639 41.1143 46.8639 41.4306C46.7569 41.6414 46.5429 41.8523 46.3289 41.8523ZM13.6971 40.9035C13.3761 40.9035 13.1621 40.6926 13.1621 40.3764C13.1621 40.0601 13.1621 39.6384 13.1621 39.3221C13.1621 39.0059 13.4831 38.795 13.6971 38.795C14.018 38.795 14.232 39.1113 14.232 39.3221C14.232 39.6384 14.232 39.9547 14.232 40.2709C14.232 40.5872 14.018 40.9035 13.6971 40.9035ZM46.0079 37.6354C45.7939 37.6354 45.58 37.4245 45.473 37.2137C45.366 36.8974 45.366 36.5812 45.259 36.2649C45.152 35.9486 45.366 35.7378 45.687 35.6324C46.0079 35.527 46.2219 35.7378 46.3289 36.0541C46.4359 36.3703 46.5429 36.792 46.5429 37.1083C46.6499 37.4245 46.4359 37.6354 46.1149 37.7408C46.1149 37.6354 46.0079 37.6354 46.0079 37.6354ZM14.232 36.6866H14.125C13.804 36.5812 13.6971 36.3703 13.6971 36.0541C13.804 35.7378 13.9111 35.3161 14.018 34.9998C14.125 34.6836 14.446 34.5782 14.66 34.6836C14.9809 34.789 15.0879 35.1053 14.9809 35.3161C14.874 35.6324 14.7669 35.9486 14.66 36.2649C14.7669 36.5812 14.553 36.6866 14.232 36.6866ZM44.6171 33.7348C44.4031 33.7348 44.1891 33.6294 44.1891 33.4185C44.0822 33.1023 43.8682 32.786 43.6542 32.5751C43.5472 32.3643 43.5472 32.048 43.8681 31.8372C44.0821 31.7318 44.4031 31.7318 44.6171 32.048C44.831 32.3643 44.938 32.6806 45.152 32.9968C45.259 33.2077 45.152 33.5239 44.938 33.7348C44.831 33.6294 44.7241 33.7348 44.6171 33.7348ZM15.9438 32.8914C15.8369 32.8914 15.7299 32.8914 15.7299 32.786C15.5159 32.6806 15.4089 32.3643 15.5159 32.048C15.7299 31.7318 15.9439 31.4155 16.0508 31.0992C16.2648 30.8884 16.5858 30.783 16.7998 30.9938C17.0137 31.2047 17.1207 31.5209 16.9067 31.7318C16.6928 32.048 16.5858 32.2589 16.3718 32.5751C16.2648 32.786 16.0508 32.8914 15.9438 32.8914ZM42.2633 30.2559C42.1563 30.2559 41.9423 30.1504 41.8354 30.045C41.6214 29.8342 41.4074 29.5179 41.0864 29.3071C40.8724 29.0962 40.8724 28.78 41.0864 28.5691C41.3004 28.3583 41.6214 28.3583 41.8354 28.5691C42.0493 28.78 42.3703 29.0962 42.5843 29.3071C42.7983 29.5179 42.7983 29.8342 42.5843 30.045C42.4773 30.1504 42.3703 30.2559 42.2633 30.2559ZM18.5116 29.5179C18.4046 29.5179 18.1906 29.5179 18.0836 29.4125C17.8697 29.2017 17.8697 28.8854 18.0836 28.6745C18.2976 28.4637 18.6186 28.1474 18.8326 27.9366C19.0466 27.7258 19.3675 27.7258 19.5815 27.9366C19.7955 28.1474 19.7955 28.4637 19.5815 28.6745C19.3675 28.8854 19.0466 29.0962 18.8326 29.4125C18.7256 29.5179 18.6186 29.5179 18.5116 29.5179ZM39.0536 27.5149C38.9466 27.5149 38.8396 27.5149 38.7326 27.4095C38.4117 27.1986 38.1977 27.0932 37.8767 26.8824C37.6627 26.777 37.5557 26.4607 37.6627 26.1444C37.7697 25.9336 38.0907 25.8282 38.4117 25.9336C38.7326 26.1444 39.0536 26.3553 39.3746 26.4607C39.5886 26.6715 39.6956 26.9878 39.4816 27.1986C39.3746 27.4095 39.1606 27.5149 39.0536 27.5149ZM21.8283 26.9878C21.6143 26.9878 21.5073 26.8824 21.4003 26.777C21.2933 26.5661 21.2933 26.2498 21.6143 26.039C21.9353 25.8282 22.2562 25.7227 22.5772 25.5119C22.7912 25.4065 23.1121 25.5119 23.3261 25.7227C23.4331 25.9336 23.3261 26.2498 23.1122 26.4607C22.7912 26.5661 22.4702 26.777 22.2562 26.9878C22.0423 26.9878 21.9353 26.9878 21.8283 26.9878ZM35.202 25.6173C35.095 25.6173 35.095 25.6173 34.988 25.6173C34.667 25.5119 34.3461 25.4065 34.0251 25.3011C33.7042 25.1956 33.5971 24.9848 33.5971 24.6685C33.7041 24.3523 33.9181 24.2468 34.2391 24.2468C34.56 24.3523 34.988 24.4577 35.3089 24.5631C35.6299 24.6685 35.737 24.9848 35.63 25.1956C35.63 25.5119 35.416 25.6173 35.202 25.6173ZM25.7869 25.3011C25.5729 25.3011 25.3589 25.1956 25.252 24.8794C25.145 24.5631 25.3589 24.3523 25.6799 24.2468C26.0009 24.1414 26.4288 24.036 26.7498 24.036C27.0708 23.9306 27.2848 24.1414 27.3918 24.4577C27.4987 24.7739 27.2847 24.9848 26.9638 25.0902C26.6428 25.1956 26.3218 25.1956 26.0009 25.3011C25.8939 25.3011 25.7869 25.3011 25.7869 25.3011ZM31.0294 24.7739C30.7084 24.7739 30.3875 24.7739 30.0665 24.7739C29.7455 24.7739 29.5315 24.5631 29.5315 24.2468C29.5315 23.9306 29.7455 23.7197 30.0665 23.7197C30.3875 23.7197 30.8154 23.7197 31.1364 23.7197C31.4574 23.7197 31.6713 24.036 31.6713 24.2468C31.5644 24.5631 31.3504 24.7739 31.0294 24.7739Z" fill="#FC8318"/>
<path d="M30.0641 69.9999C13.4807 69.9999 0 56.7168 0 40.3764C0 24.0361 13.4807 10.7529 30.0641 10.7529C46.6475 10.7529 60.1282 24.0361 60.1282 40.3764C60.1282 56.7168 46.6475 69.9999 30.0641 69.9999ZM30.0641 12.7559C14.6576 12.7559 2.13979 25.0903 2.13979 40.271C2.13979 55.4517 14.6576 67.7861 30.0641 67.7861C45.4706 67.7861 57.9884 55.4517 57.9884 40.271C57.9884 25.0903 45.4706 12.7559 30.0641 12.7559Z" fill="#FC8318"/>
<path d="M40.9798 0H19.0469V2.10843H40.9798V0Z" fill="#FC8318"/>
</svg>
