<svg width="70" height="71" viewBox="0 0 70 71" fill="none" xmlns="http://www.w3.org/2000/svg">
<g clip-path="url(#clip0)">
<path d="M46.8084 31.3128C44.671 31.3128 42.6404 30.5648 41.0374 28.9617C37.8313 25.7556 37.8313 20.519 41.0374 17.4197C44.2435 14.2136 49.4801 14.2136 52.5794 17.4197C55.7855 20.6258 55.7855 25.8625 52.5794 28.9617C51.0832 30.5648 48.9458 31.3128 46.8084 31.3128ZM46.8084 17.0991C45.2053 17.0991 43.7091 17.7403 42.5336 18.9159C40.1824 21.267 40.1824 25.1144 42.5336 27.4655C44.8847 29.8167 48.732 29.8167 51.0832 27.4655C53.4343 25.1144 53.4343 21.267 51.0832 18.9159C49.9076 17.7403 48.4114 17.0991 46.8084 17.0991Z" fill="#FC8318"/>
<path d="M33.9845 65.5115L29.389 51.6183C28.3203 51.2977 27.2516 50.9771 26.1829 50.4428L19.8776 54.1832L15.8165 50.1222L19.557 43.8168C19.0226 42.855 18.5952 41.7863 18.3814 40.6107L4.48828 36.0153L16.0303 24.4733L25.7555 23.4046C28.4272 19.8779 47.557 -4.16792 68.6104 0.534367L69.2516 0.641237L69.4654 1.38933C74.0608 22.4428 50.015 41.6794 46.5951 44.2443L45.5264 53.9695L33.9845 65.5115ZM26.1829 47.9848L26.7173 48.3054C27.8929 48.9466 29.1753 49.4809 30.4577 49.6947L31.099 49.8015L34.9463 61.5573L43.4959 53.0077L44.5646 43.0687L44.9921 42.7481C45.3127 42.5344 71.4959 23.084 67.5417 2.45803C46.8089 -1.3893 27.3585 24.7939 27.1448 25.1145L26.8242 25.542L16.8852 26.6107L8.33561 35.1603L20.0913 39.0077L20.3051 39.542C20.6257 40.8244 21.0532 42.1069 21.6944 43.2825L22.015 43.8168L18.4883 49.8015L20.1982 51.5115L26.1829 47.9848Z" fill="#FC8318"/>
<path d="M13.3444 51.6815L2.91602 62.1099L3.67169 62.8655L14.1001 52.4372L13.3444 51.6815Z" fill="#FC8318"/>
<path d="M1.21495 63.7948L0.00585938 65.0039L0.761539 65.7596L1.97063 64.5505L1.21495 63.7948Z" fill="#FC8318"/>
<path d="M15.3813 53.6817L0.0410156 69.022L0.796695 69.7777L16.137 54.4374L15.3813 53.6817Z" fill="#FC8318"/>
<path d="M17.2409 55.6644L6.8125 66.0928L7.56818 66.8485L17.9966 56.4201L17.2409 55.6644Z" fill="#FC8318"/>
<path d="M3.52642 69.3227L2.92188 69.9272L3.67755 70.6829L4.2821 70.0784L3.52642 69.3227Z" fill="#FC8318"/>
</g>
<defs>
<clipPath id="clip0">
<rect width="70" height="70.7481" fill="white"/>
</clipPath>
</defs>
</svg>
