<svg xmlns="http://www.w3.org/2000/svg" width="61" height="41" viewBox="0 0 61 41"><defs><style>.cls-1{fill:#f15d2d;fill-rule:evenodd}</style></defs><path id="VIDEO" class="cls-1" d="M1456.83 2077h-26.34a10.507 10.507 0 0 1-10.49-10.49v-20.02a10.507 10.507 0 0 1 10.49-10.49h26.35a10.505 10.505 0 0 1 10.45 9.57l7.84-4.52a3.818 3.818 0 0 1 3.89-.03 3.879 3.879 0 0 1 1.98 3.4v24.13a3.92 3.92 0 0 1-5.88 3.4l-7.84-4.52a10.513 10.513 0 0 1-10.45 9.57zm-26.34-38a7.5 7.5 0 0 0-7.49 7.49v20.02a7.5 7.5 0 0 0 7.49 7.49h26.34a7.5 7.5 0 0 0 7.49-7.49v-1.65a1.5 1.5 0 0 1 2.25-1.3l10.05 5.79a.92.92 0 0 0 1.38-.8v-24.13a.9.9 0 0 0-.46-.79.876.876 0 0 0-.9.01l-10.06 5.8a1.5 1.5 0 0 1-2.25-1.3v-1.65a7.5 7.5 0 0 0-7.49-7.49h-26.35z" transform="translate(-1420 -2036)"/></svg>